# This file is brought to you by Roblox Corporation
# Generated by Roblox Studio

mtllib SpeedUpgradeShop.mtl

g Part1

v -5.87644 -2.29511 -3.91818 
v -5.87644 -2.29511 3.91708 
v -5.87644 -5.42921 -3.91818 
v -5.87644 -5.42921 3.91708 
v -6.65997 -2.29511 3.91708 
v -5.87644 -2.29511 3.91708 
v -6.65997 -2.29511 -3.91818 
v -5.87644 -2.29511 -3.91818 
v -5.87644 -2.29511 3.91708 
v -6.65997 -2.29511 3.91708 
v -5.87644 -5.42921 3.91708 
v -6.65997 -5.42921 3.91708 
v -6.65997 -2.29511 3.91708 
v -6.65997 -2.29511 -3.91818 
v -6.65997 -5.42921 3.91708 
v -6.65997 -5.42921 -3.91818 
v -6.65997 -5.42921 -3.91818 
v -5.87644 -5.42921 -3.91818 
v -6.65997 -5.42921 3.91708 
v -5.87644 -5.42921 3.91708 
v -6.65997 -2.29511 -3.91818 
v -5.87644 -2.29511 -3.91818 
v -6.65997 -5.42921 -3.91818 
v -5.87644 -5.42921 -3.91818 

vn 1 0 0 
vn 1 0 0 
vn 1 0 0 
vn 1 0 0 
vn 0 1 0 
vn 0 1 0 
vn 0 1 0 
vn 0 1 0 
vn 0 0 1 
vn 0 0 1 
vn 0 0 1 
vn 0 0 1 
vn -1 0 0 
vn -1 0 0 
vn -1 0 0 
vn -1 0 0 
vn 0 -1 0 
vn 0 -1 0 
vn 0 -1 0 
vn 0 -1 0 
vn 0 0 -1 
vn 0 0 -1 
vn 0 0 -1 
vn 0 0 -1 

vt 3.72941 -0.25 
vt 2.75 -0.25 
vt 3.72941 -0.641763 
vt 2.75 -0.641763 
vt 2.84794 -0.25 
vt 2.75 -0.25 
vt 2.84794 -1.22941 
vt 2.75 -1.22941 
vt 2.84794 -0.25 
vt 2.75 -0.25 
vt 2.84794 -0.641763 
vt 2.75 -0.641763 
vt 3.72941 -0.25 
vt 2.75 -0.25 
vt 3.72941 -0.641763 
vt 2.75 -0.641763 
vt 2.84794 -0.25 
vt 2.75 -0.25 
vt 2.84794 -1.22941 
vt 2.75 -1.22941 
vt 2.84794 -0.25 
vt 2.75 -0.25 
vt 2.84794 -0.641763 
vt 2.75 -0.641763 

usemtl Part1Mtl

f 1/1/1 2/2/2 3/3/3 
f 3/3/3 2/2/2 4/4/4 
f 5/5/5 6/6/6 7/7/7 
f 7/7/7 6/6/6 8/8/8 
f 9/9/9 10/10/10 11/11/11 
f 11/11/11 10/10/10 12/12/12 
f 13/13/13 14/14/14 15/15/15 
f 15/15/15 14/14/14 16/16/16 
f 17/17/17 18/18/18 19/19/19 
f 19/19/19 18/18/18 20/20/20 
f 21/21/21 22/22/22 23/23/23 
f 23/23/23 22/22/22 24/24/24 

g Part2

v -5.68056 4.75661 3.13356 
v -5.68056 4.75661 4.70061 
v -5.68056 -5.42921 3.13356 
v -5.68056 -5.42921 4.70061 
v -7.44349 4.75661 4.70061 
v -5.68056 4.75661 4.70061 
v -7.44349 4.75661 3.13356 
v -5.68056 4.75661 3.13356 
v -5.68056 4.75661 4.70061 
v -7.44349 4.75661 4.70061 
v -5.68056 -5.42921 4.70061 
v -7.44349 -5.42921 4.70061 
v -7.44349 4.75661 4.70061 
v -7.44349 4.75661 3.13356 
v -7.44349 -5.42921 4.70061 
v -7.44349 -5.42921 3.13356 
v -7.44349 -5.42921 3.13356 
v -5.68056 -5.42921 3.13356 
v -7.44349 -5.42921 4.70061 
v -5.68056 -5.42921 4.70061 
v -7.44349 4.75661 3.13356 
v -5.68056 4.75661 3.13356 
v -7.44349 -5.42921 3.13356 
v -5.68056 -5.42921 3.13356 

vn 1 0 0 
vn 1 0 0 
vn 1 0 0 
vn 1 0 0 
vn 0 1 0 
vn 0 1 0 
vn 0 1 0 
vn 0 1 0 
vn 0 0 1 
vn 0 0 1 
vn 0 0 1 
vn 0 0 1 
vn -1 0 0 
vn -1 0 0 
vn -1 0 0 
vn -1 0 0 
vn 0 -1 0 
vn 0 -1 0 
vn 0 -1 0 
vn 0 -1 0 
vn 0 0 -1 
vn 0 0 -1 
vn 0 0 -1 
vn 0 0 -1 

vt 5.19588 -3.25 
vt 5 -3.25 
vt 5.19588 -4.52323 
vt 5 -4.52323 
vt 5.22037 -3.25 
vt 5 -3.25 
vt 5.22037 -3.44588 
vt 5 -3.44588 
vt 5.22037 -3.25 
vt 5 -3.25 
vt 5.22037 -4.52323 
vt 5 -4.52323 
vt 5.19588 -3.25 
vt 5 -3.25 
vt 5.19588 -4.52323 
vt 5 -4.52323 
vt 5.22037 -3.25 
vt 5 -3.25 
vt 5.22037 -3.44588 
vt 5 -3.44588 
vt 5.22037 -3.25 
vt 5 -3.25 
vt 5.22037 -4.52323 
vt 5 -4.52323 

usemtl Part2Mtl

f 25/25/25 26/26/26 27/27/27 
f 27/27/27 26/26/26 28/28/28 
f 29/29/29 30/30/30 31/31/31 
f 31/31/31 30/30/30 32/32/32 
f 33/33/33 34/34/34 35/35/35 
f 35/35/35 34/34/34 36/36/36 
f 37/37/37 38/38/38 39/39/39 
f 39/39/39 38/38/38 40/40/40 
f 41/41/41 42/42/42 43/43/43 
f 43/43/43 42/42/42 44/44/44 
f 45/45/45 46/46/46 47/47/47 
f 47/47/47 46/46/46 48/48/48 

g Part3

v -5.87644 1.8184 -4.70168 
v -5.87644 1.8184 -3.13463 
v -5.87644 -5.42921 -4.70168 
v -5.87644 -5.42921 -3.13463 
v -7.44349 1.8184 -3.13463 
v -5.87644 1.8184 -3.13463 
v -7.44349 1.8184 -4.70168 
v -5.87644 1.8184 -4.70168 
v -5.87644 1.8184 -3.13463 
v -7.44349 1.8184 -3.13463 
v -5.87644 -5.42921 -3.13463 
v -7.44349 -5.42921 -3.13463 
v -7.44349 1.8184 -3.13463 
v -7.44349 1.8184 -4.70168 
v -7.44349 -5.42921 -3.13463 
v -7.44349 -5.42921 -4.70168 
v -7.44349 -5.42921 -4.70168 
v -5.87644 -5.42921 -4.70168 
v -7.44349 -5.42921 -3.13463 
v -5.87644 -5.42921 -3.13463 
v -7.44349 1.8184 -4.70168 
v -5.87644 1.8184 -4.70168 
v -7.44349 -5.42921 -4.70168 
v -5.87644 -5.42921 -4.70168 

vn 1 0 0 
vn 1 0 0 
vn 1 0 0 
vn 1 0 0 
vn 0 1 0 
vn 0 1 0 
vn 0 1 0 
vn 0 1 0 
vn 0 0 1 
vn 0 0 1 
vn 0 0 1 
vn 0 0 1 
vn -1 0 0 
vn -1 0 0 
vn -1 0 0 
vn -1 0 0 
vn 0 -1 0 
vn 0 -1 0 
vn 0 -1 0 
vn 0 -1 0 
vn 0 0 -1 
vn 0 0 -1 
vn 0 0 -1 
vn 0 0 -1 

vt 7.69588 -2.75 
vt 7.5 -2.75 
vt 7.69588 -3.65595 
vt 7.5 -3.65595 
vt 7.69588 -2.75 
vt 7.5 -2.75 
vt 7.69588 -2.94588 
vt 7.5 -2.94588 
vt 7.69588 -2.75 
vt 7.5 -2.75 
vt 7.69588 -3.65595 
vt 7.5 -3.65595 
vt 7.69588 -2.75 
vt 7.5 -2.75 
vt 7.69588 -3.65595 
vt 7.5 -3.65595 
vt 7.69588 -2.75 
vt 7.5 -2.75 
vt 7.69588 -2.94588 
vt 7.5 -2.94588 
vt 7.69588 -2.75 
vt 7.5 -2.75 
vt 7.69588 -3.65595 
vt 7.5 -3.65595 

usemtl Part2Mtl

f 49/49/49 50/50/50 51/51/51 
f 51/51/51 50/50/50 52/52/52 
f 53/53/53 54/54/54 55/55/55 
f 55/55/55 54/54/54 56/56/56 
f 57/57/57 58/58/58 59/59/59 
f 59/59/59 58/58/58 60/60/60 
f 61/61/61 62/62/62 63/63/63 
f 63/63/63 62/62/62 64/64/64 
f 65/65/65 66/66/66 67/67/67 
f 67/67/67 66/66/66 68/68/68 
f 69/69/69 70/70/70 71/71/71 
f 71/71/71 70/70/70 72/72/72 

g Part4

v -5.68056 -2.09923 -4.11404 
v -5.68056 -2.09923 3.13357 
v -5.68056 -2.88276 -4.11404 
v -5.68056 -2.88276 3.13357 
v -6.85585 -2.09923 3.13357 
v -5.68056 -2.09923 3.13357 
v -6.85585 -2.09923 -4.11404 
v -5.68056 -2.09923 -4.11404 
v -5.68056 -2.09923 3.13357 
v -6.85585 -2.09923 3.13357 
v -5.68056 -2.88276 3.13357 
v -6.85585 -2.88276 3.13357 
v -6.85585 -2.09923 3.13357 
v -6.85585 -2.09923 -4.11404 
v -6.85585 -2.88276 3.13357 
v -6.85585 -2.88276 -4.11404 
v -6.85585 -2.88276 -4.11404 
v -5.68056 -2.88276 -4.11404 
v -6.85585 -2.88276 3.13357 
v -5.68056 -2.88276 3.13357 
v -6.85585 -2.09923 -4.11404 
v -5.68056 -2.09923 -4.11404 
v -6.85585 -2.88276 -4.11404 
v -5.68056 -2.88276 -4.11404 

vn 1 0 0 
vn 1 0 0 
vn 1 0 0 
vn 1 0 0 
vn 0 1 0 
vn 0 1 0 
vn 0 1 0 
vn 0 1 0 
vn 0 0 1 
vn 0 0 1 
vn 0 0 1 
vn 0 0 1 
vn -1 0 0 
vn -1 0 0 
vn -1 0 0 
vn -1 0 0 
vn 0 -1 0 
vn 0 -1 0 
vn 0 -1 0 
vn 0 -1 0 
vn 0 0 -1 
vn 0 0 -1 
vn 0 0 -1 
vn 0 0 -1 

vt 6.40595 -0.75 
vt 5.5 -0.75 
vt 6.40595 -0.847941 
vt 5.5 -0.847941 
vt 5.64691 -0.75 
vt 5.5 -0.75 
vt 5.64691 -1.65595 
vt 5.5 -1.65595 
vt 5.64691 -0.75 
vt 5.5 -0.75 
vt 5.64691 -0.847941 
vt 5.5 -0.847941 
vt 6.40595 -0.75 
vt 5.5 -0.75 
vt 6.40595 -0.847941 
vt 5.5 -0.847941 
vt 5.64691 -0.75 
vt 5.5 -0.75 
vt 5.64691 -1.65595 
vt 5.5 -1.65595 
vt 5.64691 -0.75 
vt 5.5 -0.75 
vt 5.64691 -0.847941 
vt 5.5 -0.847941 

usemtl Part2Mtl

f 73/73/73 74/74/74 75/75/75 
f 75/75/75 74/74/74 76/76/76 
f 77/77/77 78/78/78 79/79/79 
f 79/79/79 78/78/78 80/80/80 
f 81/81/81 82/82/82 83/83/83 
f 83/83/83 82/82/82 84/84/84 
f 85/85/85 86/86/86 87/87/87 
f 87/87/87 86/86/86 88/88/88 
f 89/89/89 90/90/90 91/91/91 
f 91/91/91 90/90/90 92/92/92 
f 93/93/93 94/94/94 95/95/95 
f 95/95/95 94/94/94 96/96/96 

g Part5

v 5.87644 -2.29511 -3.91816 
v 5.87644 -2.29511 -3.13464 
v 5.87644 -5.42921 -3.91816 
v 5.87644 -5.42921 -3.13464 
v -5.87644 -2.29511 -3.13464 
v 5.87644 -2.29511 -3.13464 
v -5.87644 -2.29511 -3.91816 
v 5.87644 -2.29511 -3.91816 
v 5.87644 -2.29511 -3.13464 
v -5.87644 -2.29511 -3.13464 
v 5.87644 -5.42921 -3.13464 
v -5.87644 -5.42921 -3.13464 
v -5.87644 -2.29511 -3.13464 
v -5.87644 -2.29511 -3.91816 
v -5.87644 -5.42921 -3.13464 
v -5.87644 -5.42921 -3.91816 
v -5.87644 -5.42921 -3.91816 
v 5.87644 -5.42921 -3.91816 
v -5.87644 -5.42921 -3.13464 
v 5.87644 -5.42921 -3.13464 
v -5.87644 -2.29511 -3.91816 
v 5.87644 -2.29511 -3.91816 
v -5.87644 -5.42921 -3.91816 
v 5.87644 -5.42921 -3.91816 

vn 1 0 0 
vn 1 0 0 
vn 1 0 0 
vn 1 0 0 
vn 0 1 0 
vn 0 1 0 
vn 0 1 0 
vn 0 1 0 
vn 0 0 1 
vn 0 0 1 
vn 0 0 1 
vn 0 0 1 
vn -1 0 0 
vn -1 0 0 
vn -1 0 0 
vn -1 0 0 
vn 0 -1 0 
vn 0 -1 0 
vn 0 -1 0 
vn 0 -1 0 
vn 0 0 -1 
vn 0 0 -1 
vn 0 0 -1 
vn 0 0 -1 

vt 6.84794 0.25 
vt 6.75 0.25 
vt 6.84794 -0.141763 
vt 6.75 -0.141763 
vt 8.21911 0.25 
vt 6.75 0.25 
vt 8.21911 0.152059 
vt 6.75 0.152059 
vt 8.21911 0.25 
vt 6.75 0.25 
vt 8.21911 -0.141763 
vt 6.75 -0.141763 
vt 6.84794 0.25 
vt 6.75 0.25 
vt 6.84794 -0.141763 
vt 6.75 -0.141763 
vt 8.21911 0.25 
vt 6.75 0.25 
vt 8.21911 0.152059 
vt 6.75 0.152059 
vt 8.21911 0.25 
vt 6.75 0.25 
vt 8.21911 -0.141763 
vt 6.75 -0.141763 

usemtl Part1Mtl

f 97/97/97 98/98/98 99/99/99 
f 99/99/99 98/98/98 100/100/100 
f 101/101/101 102/102/102 103/103/103 
f 103/103/103 102/102/102 104/104/104 
f 105/105/105 106/106/106 107/107/107 
f 107/107/107 106/106/106 108/108/108 
f 109/109/109 110/110/110 111/111/111 
f 111/111/111 110/110/110 112/112/112 
f 113/113/113 114/114/114 115/115/115 
f 115/115/115 114/114/114 116/116/116 
f 117/117/117 118/118/118 119/119/119 
f 119/119/119 118/118/118 120/120/120 

g Part6

v 7.44349 4.75661 3.13356 
v 7.44349 4.75661 4.70061 
v 7.44349 -5.42921 3.13356 
v 7.44349 -5.42921 4.70061 
v 5.68056 4.75661 4.70061 
v 7.44349 4.75661 4.70061 
v 5.68056 4.75661 3.13356 
v 7.44349 4.75661 3.13356 
v 7.44349 4.75661 4.70061 
v 5.68056 4.75661 4.70061 
v 7.44349 -5.42921 4.70061 
v 5.68056 -5.42921 4.70061 
v 5.68056 4.75661 4.70061 
v 5.68056 4.75661 3.13356 
v 5.68056 -5.42921 4.70061 
v 5.68056 -5.42921 3.13356 
v 5.68056 -5.42921 3.13356 
v 7.44349 -5.42921 3.13356 
v 5.68056 -5.42921 4.70061 
v 7.44349 -5.42921 4.70061 
v 5.68056 4.75661 3.13356 
v 7.44349 4.75661 3.13356 
v 5.68056 -5.42921 3.13356 
v 7.44349 -5.42921 3.13356 

vn 1 0 0 
vn 1 0 0 
vn 1 0 0 
vn 1 0 0 
vn 0 1 0 
vn 0 1 0 
vn 0 1 0 
vn 0 1 0 
vn 0 0 1 
vn 0 0 1 
vn 0 0 1 
vn 0 0 1 
vn -1 0 0 
vn -1 0 0 
vn -1 0 0 
vn -1 0 0 
vn 0 -1 0 
vn 0 -1 0 
vn 0 -1 0 
vn 0 -1 0 
vn 0 0 -1 
vn 0 0 -1 
vn 0 0 -1 
vn 0 0 -1 

vt 4.44588 -1.75 
vt 4.25 -1.75 
vt 4.44588 -3.02323 
vt 4.25 -3.02323 
vt 4.47037 -1.75 
vt 4.25 -1.75 
vt 4.47037 -1.94588 
vt 4.25 -1.94588 
vt 4.47037 -1.75 
vt 4.25 -1.75 
vt 4.47037 -3.02323 
vt 4.25 -3.02323 
vt 4.44588 -1.75 
vt 4.25 -1.75 
vt 4.44588 -3.02323 
vt 4.25 -3.02323 
vt 4.47037 -1.75 
vt 4.25 -1.75 
vt 4.47037 -1.94588 
vt 4.25 -1.94588 
vt 4.47037 -1.75 
vt 4.25 -1.75 
vt 4.47037 -3.02323 
vt 4.25 -3.02323 

usemtl Part2Mtl

f 121/121/121 122/122/122 123/123/123 
f 123/123/123 122/122/122 124/124/124 
f 125/125/125 126/126/126 127/127/127 
f 127/127/127 126/126/126 128/128/128 
f 129/129/129 130/130/130 131/131/131 
f 131/131/131 130/130/130 132/132/132 
f 133/133/133 134/134/134 135/135/135 
f 135/135/135 134/134/134 136/136/136 
f 137/137/137 138/138/138 139/139/139 
f 139/139/139 138/138/138 140/140/140 
f 141/141/141 142/142/142 143/143/143 
f 143/143/143 142/142/142 144/144/144 

g Part7

v 5.87644 -2.09923 -4.11405 
v 5.87644 -2.09923 -1.56759 
v 5.87644 -2.88276 -4.11405 
v 5.87644 -2.88276 -1.56759 
v -5.87644 -2.09923 -1.56759 
v 5.87644 -2.09923 -1.56759 
v -5.87644 -2.09923 -4.11405 
v 5.87644 -2.09923 -4.11405 
v 5.87644 -2.09923 -1.56759 
v -5.87644 -2.09923 -1.56759 
v 5.87644 -2.88276 -1.56759 
v -5.87644 -2.88276 -1.56759 
v -5.87644 -2.09923 -1.56759 
v -5.87644 -2.09923 -4.11405 
v -5.87644 -2.88276 -1.56759 
v -5.87644 -2.88276 -4.11405 
v -5.87644 -2.88276 -4.11405 
v 5.87644 -2.88276 -4.11405 
v -5.87644 -2.88276 -1.56759 
v 5.87644 -2.88276 -1.56759 
v -5.87644 -2.09923 -4.11405 
v 5.87644 -2.09923 -4.11405 
v -5.87644 -2.88276 -4.11405 
v 5.87644 -2.88276 -4.11405 

vn 1 0 0 
vn 1 0 0 
vn 1 0 0 
vn 1 0 0 
vn 0 1 0 
vn 0 1 0 
vn 0 1 0 
vn 0 1 0 
vn 0 0 1 
vn 0 0 1 
vn 0 0 1 
vn 0 0 1 
vn -1 0 0 
vn -1 0 0 
vn -1 0 0 
vn -1 0 0 
vn 0 -1 0 
vn 0 -1 0 
vn 0 -1 0 
vn 0 -1 0 
vn 0 0 -1 
vn 0 0 -1 
vn 0 0 -1 
vn 0 0 -1 

vt 7.81831 0.5 
vt 7.5 0.5 
vt 7.81831 0.402059 
vt 7.5 0.402059 
vt 8.96911 0.5 
vt 7.5 0.5 
vt 8.96911 0.181693 
vt 7.5 0.181693 
vt 8.96911 0.5 
vt 7.5 0.5 
vt 8.96911 0.402059 
vt 7.5 0.402059 
vt 7.81831 0.5 
vt 7.5 0.5 
vt 7.81831 0.402059 
vt 7.5 0.402059 
vt 8.96911 0.5 
vt 7.5 0.5 
vt 8.96911 0.181693 
vt 7.5 0.181693 
vt 8.96911 0.5 
vt 7.5 0.5 
vt 8.96911 0.402059 
vt 7.5 0.402059 

usemtl Part2Mtl

f 145/145/145 146/146/146 147/147/147 
f 147/147/147 146/146/146 148/148/148 
f 149/149/149 150/150/150 151/151/151 
f 151/151/151 150/150/150 152/152/152 
f 153/153/153 154/154/154 155/155/155 
f 155/155/155 154/154/154 156/156/156 
f 157/157/157 158/158/158 159/159/159 
f 159/159/159 158/158/158 160/160/160 
f 161/161/161 162/162/162 163/163/163 
f 163/163/163 162/162/162 164/164/164 
f 165/165/165 166/166/166 167/167/167 
f 167/167/167 166/166/166 168/168/168 

g Part8

v 6.65997 -2.29511 -3.91818 
v 6.65997 -2.29511 3.91708 
v 6.65997 -5.42921 -3.91818 
v 6.65997 -5.42921 3.91708 
v 5.87644 -2.29511 3.91708 
v 6.65997 -2.29511 3.91708 
v 5.87644 -2.29511 -3.91818 
v 6.65997 -2.29511 -3.91818 
v 6.65997 -2.29511 3.91708 
v 5.87644 -2.29511 3.91708 
v 6.65997 -5.42921 3.91708 
v 5.87644 -5.42921 3.91708 
v 5.87644 -2.29511 3.91708 
v 5.87644 -2.29511 -3.91818 
v 5.87644 -5.42921 3.91708 
v 5.87644 -5.42921 -3.91818 
v 5.87644 -5.42921 -3.91818 
v 6.65997 -5.42921 -3.91818 
v 5.87644 -5.42921 3.91708 
v 6.65997 -5.42921 3.91708 
v 5.87644 -2.29511 -3.91818 
v 6.65997 -2.29511 -3.91818 
v 5.87644 -5.42921 -3.91818 
v 6.65997 -5.42921 -3.91818 

vn 1 0 0 
vn 1 0 0 
vn 1 0 0 
vn 1 0 0 
vn 0 1 0 
vn 0 1 0 
vn 0 1 0 
vn 0 1 0 
vn 0 0 1 
vn 0 0 1 
vn 0 0 1 
vn 0 0 1 
vn -1 0 0 
vn -1 0 0 
vn -1 0 0 
vn -1 0 0 
vn 0 -1 0 
vn 0 -1 0 
vn 0 -1 0 
vn 0 -1 0 
vn 0 0 -1 
vn 0 0 -1 
vn 0 0 -1 
vn 0 0 -1 

vt 7.97941 -2 
vt 7 -2 
vt 7.97941 -2.39176 
vt 7 -2.39176 
vt 7.09794 -2 
vt 7 -2 
vt 7.09794 -2.97941 
vt 7 -2.97941 
vt 7.09794 -2 
vt 7 -2 
vt 7.09794 -2.39176 
vt 7 -2.39176 
vt 7.97941 -2 
vt 7 -2 
vt 7.97941 -2.39176 
vt 7 -2.39176 
vt 7.09794 -2 
vt 7 -2 
vt 7.09794 -2.97941 
vt 7 -2.97941 
vt 7.09794 -2 
vt 7 -2 
vt 7.09794 -2.39176 
vt 7 -2.39176 

usemtl Part1Mtl

f 169/169/169 170/170/170 171/171/171 
f 171/171/171 170/170/170 172/172/172 
f 173/173/173 174/174/174 175/175/175 
f 175/175/175 174/174/174 176/176/176 
f 177/177/177 178/178/178 179/179/179 
f 179/179/179 178/178/178 180/180/180 
f 181/181/181 182/182/182 183/183/183 
f 183/183/183 182/182/182 184/184/184 
f 185/185/185 186/186/186 187/187/187 
f 187/187/187 186/186/186 188/188/188 
f 189/189/189 190/190/190 191/191/191 
f 191/191/191 190/190/190 192/192/192 

g Part9

v 6.85585 -2.09923 -4.11404 
v 6.85585 -2.09923 3.13357 
v 6.85585 -2.88276 -4.11404 
v 6.85585 -2.88276 3.13357 
v 5.68056 -2.09923 3.13357 
v 6.85585 -2.09923 3.13357 
v 5.68056 -2.09923 -4.11404 
v 6.85585 -2.09923 -4.11404 
v 6.85585 -2.09923 3.13357 
v 5.68056 -2.09923 3.13357 
v 6.85585 -2.88276 3.13357 
v 5.68056 -2.88276 3.13357 
v 5.68056 -2.09923 3.13357 
v 5.68056 -2.09923 -4.11404 
v 5.68056 -2.88276 3.13357 
v 5.68056 -2.88276 -4.11404 
v 5.68056 -2.88276 -4.11404 
v 6.85585 -2.88276 -4.11404 
v 5.68056 -2.88276 3.13357 
v 6.85585 -2.88276 3.13357 
v 5.68056 -2.09923 -4.11404 
v 6.85585 -2.09923 -4.11404 
v 5.68056 -2.88276 -4.11404 
v 6.85585 -2.88276 -4.11404 

vn 1 0 0 
vn 1 0 0 
vn 1 0 0 
vn 1 0 0 
vn 0 1 0 
vn 0 1 0 
vn 0 1 0 
vn 0 1 0 
vn 0 0 1 
vn 0 0 1 
vn 0 0 1 
vn 0 0 1 
vn -1 0 0 
vn -1 0 0 
vn -1 0 0 
vn -1 0 0 
vn 0 -1 0 
vn 0 -1 0 
vn 0 -1 0 
vn 0 -1 0 
vn 0 0 -1 
vn 0 0 -1 
vn 0 0 -1 
vn 0 0 -1 

vt 3.65595 -4.5 
vt 2.75 -4.5 
vt 3.65595 -4.59794 
vt 2.75 -4.59794 
vt 2.89691 -4.5 
vt 2.75 -4.5 
vt 2.89691 -5.40595 
vt 2.75 -5.40595 
vt 2.89691 -4.5 
vt 2.75 -4.5 
vt 2.89691 -4.59794 
vt 2.75 -4.59794 
vt 3.65595 -4.5 
vt 2.75 -4.5 
vt 3.65595 -4.59794 
vt 2.75 -4.59794 
vt 2.89691 -4.5 
vt 2.75 -4.5 
vt 2.89691 -5.40595 
vt 2.75 -5.40595 
vt 2.89691 -4.5 
vt 2.75 -4.5 
vt 2.89691 -4.59794 
vt 2.75 -4.59794 

usemtl Part2Mtl

f 193/193/193 194/194/194 195/195/195 
f 195/195/195 194/194/194 196/196/196 
f 197/197/197 198/198/198 199/199/199 
f 199/199/199 198/198/198 200/200/200 
f 201/201/201 202/202/202 203/203/203 
f 203/203/203 202/202/202 204/204/204 
f 205/205/205 206/206/206 207/207/207 
f 207/207/207 206/206/206 208/208/208 
f 209/209/209 210/210/210 211/211/211 
f 211/211/211 210/210/210 212/212/212 
f 213/213/213 214/214/214 215/215/215 
f 215/215/215 214/214/214 216/216/216 

g Part10

v 7.44349 1.8184 -4.70168 
v 7.44349 1.8184 -3.13463 
v 7.44349 -5.42921 -4.70168 
v 7.44349 -5.42921 -3.13463 
v 5.87644 1.8184 -3.13463 
v 7.44349 1.8184 -3.13463 
v 5.87644 1.8184 -4.70168 
v 7.44349 1.8184 -4.70168 
v 7.44349 1.8184 -3.13463 
v 5.87644 1.8184 -3.13463 
v 7.44349 -5.42921 -3.13463 
v 5.87644 -5.42921 -3.13463 
v 5.87644 1.8184 -3.13463 
v 5.87644 1.8184 -4.70168 
v 5.87644 -5.42921 -3.13463 
v 5.87644 -5.42921 -4.70168 
v 5.87644 -5.42921 -4.70168 
v 7.44349 -5.42921 -4.70168 
v 5.87644 -5.42921 -3.13463 
v 7.44349 -5.42921 -3.13463 
v 5.87644 1.8184 -4.70168 
v 7.44349 1.8184 -4.70168 
v 5.87644 -5.42921 -4.70168 
v 7.44349 -5.42921 -4.70168 

vn 1 0 0 
vn 1 0 0 
vn 1 0 0 
vn 1 0 0 
vn 0 1 0 
vn 0 1 0 
vn 0 1 0 
vn 0 1 0 
vn 0 0 1 
vn 0 0 1 
vn 0 0 1 
vn 0 0 1 
vn -1 0 0 
vn -1 0 0 
vn -1 0 0 
vn -1 0 0 
vn 0 -1 0 
vn 0 -1 0 
vn 0 -1 0 
vn 0 -1 0 
vn 0 0 -1 
vn 0 0 -1 
vn 0 0 -1 
vn 0 0 -1 

vt 2.69588 -3.75 
vt 2.5 -3.75 
vt 2.69588 -4.65595 
vt 2.5 -4.65595 
vt 2.69588 -3.75 
vt 2.5 -3.75 
vt 2.69588 -3.94588 
vt 2.5 -3.94588 
vt 2.69588 -3.75 
vt 2.5 -3.75 
vt 2.69588 -4.65595 
vt 2.5 -4.65595 
vt 2.69588 -3.75 
vt 2.5 -3.75 
vt 2.69588 -4.65595 
vt 2.5 -4.65595 
vt 2.69588 -3.75 
vt 2.5 -3.75 
vt 2.69588 -3.94588 
vt 2.5 -3.94588 
vt 2.69588 -3.75 
vt 2.5 -3.75 
vt 2.69588 -4.65595 
vt 2.5 -4.65595 

usemtl Part2Mtl

f 217/217/217 218/218/218 219/219/219 
f 219/219/219 218/218/218 220/220/220 
f 221/221/221 222/222/222 223/223/223 
f 223/223/223 222/222/222 224/224/224 
f 225/225/225 226/226/226 227/227/227 
f 227/227/227 226/226/226 228/228/228 
f 229/229/229 230/230/230 231/231/231 
f 231/231/231 230/230/230 232/232/232 
f 233/233/233 234/234/234 235/235/235 
f 235/235/235 234/234/234 236/236/236 
f 237/237/237 238/238/238 239/239/239 
f 239/239/239 238/238/238 240/240/240 

g Part11

v 4.29715 -4.51598 1.64477 
v 4.30775 -4.18019 1.98039 
v 4.30962 -4.25256 2.03969 
v 4.31137 -4.36581 2.09505 
v 4.31214 -4.51598 2.11941 
v 4.31137 -4.66615 2.09505 
v 4.30962 -4.7794 2.03969 
v 4.30775 -4.85177 1.98039 
v 4.30775 -4.85177 1.98039 
v 4.30546 -4.9111 1.90805 
v 4.30189 -4.96649 1.79486 
v 4.29715 -4.99086 1.64477 
v 4.29241 -4.96649 1.49467 
v 4.28883 -4.9111 1.38148 
v 4.28654 -4.85177 1.30914 
v 4.28654 -4.85177 1.30914 
v 4.28467 -4.7794 1.24984 
v 4.28292 -4.66615 1.19448 
v 4.28215 -4.51598 1.17012 
v 4.28292 -4.36581 1.19448 
v 4.28467 -4.25256 1.24984 
v 4.28654 -4.18019 1.30914 
v 4.28654 -4.18019 1.30914 
v 4.28883 -4.12086 1.38148 
v 4.29241 -4.06547 1.49467 
v 4.29715 -4.0411 1.64477 
v 4.30189 -4.06547 1.79486 
v 4.30546 -4.12086 1.90805 
v 4.30775 -4.18019 1.98039 
v 4.33036 -4.18019 1.30776 
v 4.28654 -4.18019 1.30914 
v 4.33264 -4.12086 1.3801 
v 4.28883 -4.12086 1.38148 
v 4.33622 -4.06547 1.49329 
v 4.29241 -4.06547 1.49467 
v 4.34096 -4.0411 1.64338 
v 4.29715 -4.0411 1.64477 
v 4.3457 -4.06547 1.79348 
v 4.30189 -4.06547 1.79486 
v 4.34928 -4.12086 1.90667 
v 4.30546 -4.12086 1.90805 
v 4.35156 -4.18019 1.97901 
v 4.30775 -4.18019 1.98039 
v 4.28654 -4.18019 1.30914 
v 4.33036 -4.18019 1.30776 
v 4.28467 -4.25256 1.24984 
v 4.32848 -4.25256 1.24845 
v 4.28292 -4.36581 1.19448 
v 4.32674 -4.36581 1.19309 
v 4.28215 -4.51598 1.17012 
v 4.32597 -4.51598 1.16874 
v 4.28292 -4.66615 1.19448 
v 4.32674 -4.66615 1.19309 
v 4.28467 -4.7794 1.24984 
v 4.32848 -4.7794 1.24845 
v 4.28654 -4.85177 1.30914 
v 4.33036 -4.85177 1.30776 
v 4.34096 -4.51598 1.64338 
v 4.33036 -4.18019 1.30776 
v 4.32848 -4.25256 1.24845 
v 4.32674 -4.36581 1.19309 
v 4.32597 -4.51598 1.16874 
v 4.32674 -4.66615 1.19309 
v 4.32848 -4.7794 1.24845 
v 4.33036 -4.85177 1.30776 
v 4.33036 -4.85177 1.30776 
v 4.33264 -4.9111 1.3801 
v 4.33622 -4.96649 1.49329 
v 4.34096 -4.99086 1.64338 
v 4.3457 -4.96649 1.79348 
v 4.34928 -4.9111 1.90667 
v 4.35156 -4.85177 1.97901 
v 4.35156 -4.85177 1.97901 
v 4.35344 -4.7794 2.03831 
v 4.35518 -4.66615 2.09367 
v 4.35595 -4.51598 2.11803 
v 4.35518 -4.36581 2.09367 
v 4.35344 -4.25256 2.03831 
v 4.35156 -4.18019 1.97901 
v 4.35156 -4.18019 1.97901 
v 4.34928 -4.12086 1.90667 
v 4.3457 -4.06547 1.79348 
v 4.34096 -4.0411 1.64338 
v 4.33622 -4.06547 1.49329 
v 4.33264 -4.12086 1.3801 
v 4.33036 -4.18019 1.30776 
v 4.35156 -4.85177 1.97901 
v 4.30775 -4.85177 1.98039 
v 4.34928 -4.9111 1.90667 
v 4.30546 -4.9111 1.90805 
v 4.3457 -4.96649 1.79348 
v 4.30189 -4.96649 1.79486 
v 4.34096 -4.99086 1.64338 
v 4.29715 -4.99086 1.64477 
v 4.33622 -4.96649 1.49329 
v 4.29241 -4.96649 1.49467 
v 4.33264 -4.9111 1.3801 
v 4.28883 -4.9111 1.38148 
v 4.33036 -4.85177 1.30776 
v 4.28654 -4.85177 1.30914 
v 4.35156 -4.18019 1.97901 
v 4.30775 -4.18019 1.98039 
v 4.35344 -4.25256 2.03831 
v 4.30962 -4.25256 2.03969 
v 4.35518 -4.36581 2.09367 
v 4.31137 -4.36581 2.09505 
v 4.35595 -4.51598 2.11803 
v 4.31214 -4.51598 2.11941 
v 4.35518 -4.66615 2.09367 
v 4.31137 -4.66615 2.09505 
v 4.35344 -4.7794 2.03831 
v 4.30962 -4.7794 2.03969 
v 4.35156 -4.85177 1.97901 
v 4.30775 -4.85177 1.98039 

vn -1 0 0.0314961 
vn -1 0 0.0314961 
vn -1 0 0.0314961 
vn -1 0 0.0314961 
vn -1 0 0.0314961 
vn -1 0 0.0314961 
vn -1 0 0.0314961 
vn -1 0 0.0314961 
vn -1 0 0.0314961 
vn -1 0 0.0314961 
vn -1 0 0.0314961 
vn -1 0 0.0314961 
vn -1 0 0.0314961 
vn -1 0 0.0314961 
vn -1 0 0.0314961 
vn -1 0 0.0314961 
vn -1 0 0.0314961 
vn -1 0 0.0314961 
vn -1 0 0.0314961 
vn -1 0 0.0314961 
vn -1 0 0.0314961 
vn -1 0 0.0314961 
vn -1 0 0.0314961 
vn -1 0 0.0314961 
vn -1 0 0.0314961 
vn -1 0 0.0314961 
vn -1 0 0.0314961 
vn -1 0 0.0314961 
vn -1 0 0.0314961 
vn -0.023622 0.708661 -0.708661 
vn -0.023622 0.708661 -0.708661 
vn -0.015748 0.834646 -0.551181 
vn -0.015748 0.834646 -0.551181 
vn -0.00787402 0.944882 -0.314961 
vn -0.00787402 0.944882 -0.314961 
vn 0 1 0 
vn 0 1 0 
vn 0.00787402 0.944882 0.314961 
vn 0.00787402 0.944882 0.314961 
vn 0.015748 0.834646 0.551181 
vn 0.015748 0.834646 0.551181 
vn 0.023622 0.708661 0.708661 
vn 0.023622 0.708661 0.708661 
vn -0.023622 0.708661 -0.708661 
vn -0.023622 0.708661 -0.708661 
vn -0.023622 0.551181 -0.834646 
vn -0.023622 0.551181 -0.834646 
vn -0.0314961 0.314961 -0.944882 
vn -0.0314961 0.314961 -0.944882 
vn -0.0314961 0 -1 
vn -0.0314961 0 -1 
vn -0.0314961 -0.314961 -0.944882 
vn -0.0314961 -0.314961 -0.944882 
vn -0.023622 -0.551181 -0.834646 
vn -0.023622 -0.551181 -0.834646 
vn -0.023622 -0.708661 -0.708661 
vn -0.023622 -0.708661 -0.708661 
vn 1 0 -0.0314961 
vn 1 0 -0.0314961 
vn 1 0 -0.0314961 
vn 1 0 -0.0314961 
vn 1 0 -0.0314961 
vn 1 0 -0.0314961 
vn 1 0 -0.0314961 
vn 1 0 -0.0314961 
vn 1 0 -0.0314961 
vn 1 0 -0.0314961 
vn 1 0 -0.0314961 
vn 1 0 -0.0314961 
vn 1 0 -0.0314961 
vn 1 0 -0.0314961 
vn 1 0 -0.0314961 
vn 1 0 -0.0314961 
vn 1 0 -0.0314961 
vn 1 0 -0.0314961 
vn 1 0 -0.0314961 
vn 1 0 -0.0314961 
vn 1 0 -0.0314961 
vn 1 0 -0.0314961 
vn 1 0 -0.0314961 
vn 1 0 -0.0314961 
vn 1 0 -0.0314961 
vn 1 0 -0.0314961 
vn 1 0 -0.0314961 
vn 1 0 -0.0314961 
vn 1 0 -0.0314961 
vn 0.023622 -0.708661 0.708661 
vn 0.023622 -0.708661 0.708661 
vn 0.015748 -0.834646 0.551181 
vn 0.015748 -0.834646 0.551181 
vn 0.00787402 -0.944882 0.314961 
vn 0.00787402 -0.944882 0.314961 
vn 0 -1 0 
vn 0 -1 0 
vn -0.00787402 -0.944882 -0.314961 
vn -0.00787402 -0.944882 -0.314961 
vn -0.015748 -0.834646 -0.551181 
vn -0.015748 -0.834646 -0.551181 
vn -0.023622 -0.708661 -0.708661 
vn -0.023622 -0.708661 -0.708661 
vn 0.023622 0.708661 0.708661 
vn 0.023622 0.708661 0.708661 
vn 0.023622 0.551181 0.834646 
vn 0.023622 0.551181 0.834646 
vn 0.0314961 0.314961 0.944882 
vn 0.0314961 0.314961 0.944882 
vn 0.0314961 0 1 
vn 0.0314961 0 1 
vn 0.0314961 -0.314961 0.944882 
vn 0.0314961 -0.314961 0.944882 
vn 0.023622 -0.551181 0.834646 
vn 0.023622 -0.551181 0.834646 
vn 0.023622 -0.708661 0.708661 
vn 0.023622 -0.708661 0.708661 

vt 4.55936 -4.30936 
vt 4.60133 -4.26739 
vt 4.60875 -4.27643 
vt 4.61567 -4.29059 
vt 4.61872 -4.30936 
vt 4.61567 -4.32813 
vt 4.60875 -4.34229 
vt 4.60133 -4.35133 
vt 4.60133 -4.35133 
vt 4.59229 -4.35875 
vt 4.57813 -4.36567 
vt 4.55936 -4.36872 
vt 4.54059 -4.36567 
vt 4.52643 -4.35875 
vt 4.51739 -4.35133 
vt 4.51739 -4.35133 
vt 4.50997 -4.34229 
vt 4.50305 -4.32813 
vt 4.5 -4.30936 
vt 4.50305 -4.29059 
vt 4.50997 -4.27643 
vt 4.51739 -4.26739 
vt 4.51739 -4.26739 
vt 4.52643 -4.25997 
vt 4.54059 -4.25305 
vt 4.55936 -4.25 
vt 4.57813 -4.25305 
vt 4.59229 -4.25997 
vt 4.60133 -4.26739 
vt 9.00548 -9.5 
vt 9 -9.5 
vt 9.00548 -9.51979 
vt 9 -9.51979 
vt 9.00548 -9.53957 
vt 9 -9.53957 
vt 9.00548 -9.55936 
vt 9 -9.55936 
vt 9.00548 -9.57915 
vt 9 -9.57915 
vt 9.00548 -9.59893 
vt 9 -9.59893 
vt 9.00548 -9.61872 
vt 9 -9.61872 
vt 9.00548 -9.5 
vt 9 -9.5 
vt 9.00548 -9.51979 
vt 9 -9.51979 
vt 9.00548 -9.53957 
vt 9 -9.53957 
vt 9.00548 -9.55936 
vt 9 -9.55936 
vt 9.00548 -9.57915 
vt 9 -9.57915 
vt 9.00548 -9.59893 
vt 9 -9.59893 
vt 9.00548 -9.61872 
vt 9 -9.61872 
vt 4.55936 -4.30936 
vt 4.60133 -4.26739 
vt 4.60875 -4.27643 
vt 4.61567 -4.29059 
vt 4.61872 -4.30936 
vt 4.61567 -4.32813 
vt 4.60875 -4.34229 
vt 4.60133 -4.35133 
vt 4.60133 -4.35133 
vt 4.59229 -4.35875 
vt 4.57813 -4.36567 
vt 4.55936 -4.36872 
vt 4.54059 -4.36567 
vt 4.52643 -4.35875 
vt 4.51739 -4.35133 
vt 4.51739 -4.35133 
vt 4.50997 -4.34229 
vt 4.50305 -4.32813 
vt 4.5 -4.30936 
vt 4.50305 -4.29059 
vt 4.50997 -4.27643 
vt 4.51739 -4.26739 
vt 4.51739 -4.26739 
vt 4.52643 -4.25997 
vt 4.54059 -4.25305 
vt 4.55936 -4.25 
vt 4.57813 -4.25305 
vt 4.59229 -4.25997 
vt 4.60133 -4.26739 
vt 9.00548 -9.5 
vt 9 -9.5 
vt 9.00548 -9.51979 
vt 9 -9.51979 
vt 9.00548 -9.53957 
vt 9 -9.53957 
vt 9.00548 -9.55936 
vt 9 -9.55936 
vt 9.00548 -9.57915 
vt 9 -9.57915 
vt 9.00548 -9.59893 
vt 9 -9.59893 
vt 9.00548 -9.61872 
vt 9 -9.61872 
vt 9.00548 -9.5 
vt 9 -9.5 
vt 9.00548 -9.51979 
vt 9 -9.51979 
vt 9.00548 -9.53957 
vt 9 -9.53957 
vt 9.00548 -9.55936 
vt 9 -9.55936 
vt 9.00548 -9.57915 
vt 9 -9.57915 
vt 9.00548 -9.59893 
vt 9 -9.59893 
vt 9.00548 -9.61872 
vt 9 -9.61872 

usemtl Part11Mtl

f 241/241/241 243/243/243 242/242/242 
f 241/241/241 244/244/244 243/243/243 
f 241/241/241 245/245/245 244/244/244 
f 241/241/241 246/246/246 245/245/245 
f 241/241/241 247/247/247 246/246/246 
f 241/241/241 248/248/248 247/247/247 
f 241/241/241 250/250/250 249/249/249 
f 241/241/241 251/251/251 250/250/250 
f 241/241/241 252/252/252 251/251/251 
f 241/241/241 253/253/253 252/252/252 
f 241/241/241 254/254/254 253/253/253 
f 241/241/241 255/255/255 254/254/254 
f 241/241/241 257/257/257 256/256/256 
f 241/241/241 258/258/258 257/257/257 
f 241/241/241 259/259/259 258/258/258 
f 241/241/241 260/260/260 259/259/259 
f 241/241/241 261/261/261 260/260/260 
f 241/241/241 262/262/262 261/261/261 
f 241/241/241 264/264/264 263/263/263 
f 241/241/241 265/265/265 264/264/264 
f 241/241/241 266/266/266 265/265/265 
f 241/241/241 267/267/267 266/266/266 
f 241/241/241 268/268/268 267/267/267 
f 241/241/241 269/269/269 268/268/268 
f 270/270/270 271/271/271 272/272/272 
f 272/272/272 271/271/271 273/273/273 
f 272/272/272 273/273/273 274/274/274 
f 274/274/274 273/273/273 275/275/275 
f 274/274/274 275/275/275 276/276/276 
f 276/276/276 275/275/275 277/277/277 
f 276/276/276 277/277/277 278/278/278 
f 278/278/278 277/277/277 279/279/279 
f 278/278/278 279/279/279 280/280/280 
f 280/280/280 279/279/279 281/281/281 
f 280/280/280 281/281/281 282/282/282 
f 282/282/282 281/281/281 283/283/283 
f 284/284/284 285/285/285 286/286/286 
f 286/286/286 285/285/285 287/287/287 
f 286/286/286 287/287/287 288/288/288 
f 288/288/288 287/287/287 289/289/289 
f 288/288/288 289/289/289 290/290/290 
f 290/290/290 289/289/289 291/291/291 
f 290/290/290 291/291/291 292/292/292 
f 292/292/292 291/291/291 293/293/293 
f 292/292/292 293/293/293 294/294/294 
f 294/294/294 293/293/293 295/295/295 
f 294/294/294 295/295/295 296/296/296 
f 296/296/296 295/295/295 297/297/297 
f 298/298/298 300/300/300 299/299/299 
f 298/298/298 301/301/301 300/300/300 
f 298/298/298 302/302/302 301/301/301 
f 298/298/298 303/303/303 302/302/302 
f 298/298/298 304/304/304 303/303/303 
f 298/298/298 305/305/305 304/304/304 
f 298/298/298 307/307/307 306/306/306 
f 298/298/298 308/308/308 307/307/307 
f 298/298/298 309/309/309 308/308/308 
f 298/298/298 310/310/310 309/309/309 
f 298/298/298 311/311/311 310/310/310 
f 298/298/298 312/312/312 311/311/311 
f 298/298/298 314/314/314 313/313/313 
f 298/298/298 315/315/315 314/314/314 
f 298/298/298 316/316/316 315/315/315 
f 298/298/298 317/317/317 316/316/316 
f 298/298/298 318/318/318 317/317/317 
f 298/298/298 319/319/319 318/318/318 
f 298/298/298 321/321/321 320/320/320 
f 298/298/298 322/322/322 321/321/321 
f 298/298/298 323/323/323 322/322/322 
f 298/298/298 324/324/324 323/323/323 
f 298/298/298 325/325/325 324/324/324 
f 298/298/298 326/326/326 325/325/325 
f 327/327/327 328/328/328 329/329/329 
f 329/329/329 328/328/328 330/330/330 
f 329/329/329 330/330/330 331/331/331 
f 331/331/331 330/330/330 332/332/332 
f 331/331/331 332/332/332 333/333/333 
f 333/333/333 332/332/332 334/334/334 
f 333/333/333 334/334/334 335/335/335 
f 335/335/335 334/334/334 336/336/336 
f 335/335/335 336/336/336 337/337/337 
f 337/337/337 336/336/336 338/338/338 
f 337/337/337 338/338/338 339/339/339 
f 339/339/339 338/338/338 340/340/340 
f 341/341/341 342/342/342 343/343/343 
f 343/343/343 342/342/342 344/344/344 
f 343/343/343 344/344/344 345/345/345 
f 345/345/345 344/344/344 346/346/346 
f 345/345/345 346/346/346 347/347/347 
f 347/347/347 346/346/346 348/348/348 
f 347/347/347 348/348/348 349/349/349 
f 349/349/349 348/348/348 350/350/350 
f 349/349/349 350/350/350 351/351/351 
f 351/351/351 350/350/350 352/352/352 
f 351/351/351 352/352/352 353/353/353 
f 353/353/353 352/352/352 354/354/354 

g Part12

v 4.22103 -4.51598 -0.764933 
v 4.23163 -4.18019 -0.429309 
v 4.2335 -4.25256 -0.370005 
v 4.23525 -4.36581 -0.314646 
v 4.23602 -4.51598 -0.290289 
v 4.23525 -4.66615 -0.314646 
v 4.2335 -4.7794 -0.370005 
v 4.23163 -4.85177 -0.429309 
v 4.23163 -4.85177 -0.429309 
v 4.22935 -4.9111 -0.501648 
v 4.22577 -4.96649 -0.614837 
v 4.22103 -4.99086 -0.764933 
v 4.21629 -4.96649 -0.915029 
v 4.21271 -4.9111 -1.02822 
v 4.21043 -4.85177 -1.10056 
v 4.21043 -4.85177 -1.10056 
v 4.20855 -4.7794 -1.15986 
v 4.2068 -4.66615 -1.21522 
v 4.20603 -4.51598 -1.23958 
v 4.2068 -4.36581 -1.21522 
v 4.20855 -4.25256 -1.15986 
v 4.21043 -4.18019 -1.10056 
v 4.21043 -4.18019 -1.10056 
v 4.21271 -4.12086 -1.02822 
v 4.21629 -4.06547 -0.915029 
v 4.22103 -4.0411 -0.764933 
v 4.22577 -4.06547 -0.614837 
v 4.22935 -4.12086 -0.501648 
v 4.23163 -4.18019 -0.429309 
v 4.25424 -4.18019 -1.10194 
v 4.21043 -4.18019 -1.10056 
v 4.25652 -4.12086 -1.0296 
v 4.21271 -4.12086 -1.02822 
v 4.2601 -4.06547 -0.916413 
v 4.21629 -4.06547 -0.915029 
v 4.26484 -4.0411 -0.766317 
v 4.22103 -4.0411 -0.764933 
v 4.26958 -4.06547 -0.616221 
v 4.22577 -4.06547 -0.614837 
v 4.27316 -4.12086 -0.503032 
v 4.22935 -4.12086 -0.501648 
v 4.27544 -4.18019 -0.430693 
v 4.23163 -4.18019 -0.429309 
v 4.21043 -4.18019 -1.10056 
v 4.25424 -4.18019 -1.10194 
v 4.20855 -4.25256 -1.15986 
v 4.25237 -4.25256 -1.16124 
v 4.2068 -4.36581 -1.21522 
v 4.25062 -4.36581 -1.2166 
v 4.20603 -4.51598 -1.23958 
v 4.24985 -4.51598 -1.24096 
v 4.2068 -4.66615 -1.21522 
v 4.25062 -4.66615 -1.2166 
v 4.20855 -4.7794 -1.15986 
v 4.25237 -4.7794 -1.16124 
v 4.21043 -4.85177 -1.10056 
v 4.25424 -4.85177 -1.10194 
v 4.26484 -4.51598 -0.766317 
v 4.25424 -4.18019 -1.10194 
v 4.25237 -4.25256 -1.16124 
v 4.25062 -4.36581 -1.2166 
v 4.24985 -4.51598 -1.24096 
v 4.25062 -4.66615 -1.2166 
v 4.25237 -4.7794 -1.16124 
v 4.25424 -4.85177 -1.10194 
v 4.25424 -4.85177 -1.10194 
v 4.25652 -4.9111 -1.0296 
v 4.2601 -4.96649 -0.916413 
v 4.26484 -4.99086 -0.766317 
v 4.26958 -4.96649 -0.616221 
v 4.27316 -4.9111 -0.503032 
v 4.27544 -4.85177 -0.430693 
v 4.27544 -4.85177 -0.430693 
v 4.27732 -4.7794 -0.371389 
v 4.27907 -4.66615 -0.31603 
v 4.27984 -4.51598 -0.291673 
v 4.27907 -4.36581 -0.31603 
v 4.27732 -4.25256 -0.371389 
v 4.27544 -4.18019 -0.430693 
v 4.27544 -4.18019 -0.430693 
v 4.27316 -4.12086 -0.503032 
v 4.26958 -4.06547 -0.616221 
v 4.26484 -4.0411 -0.766317 
v 4.2601 -4.06547 -0.916413 
v 4.25652 -4.12086 -1.0296 
v 4.25424 -4.18019 -1.10194 
v 4.27544 -4.85177 -0.430693 
v 4.23163 -4.85177 -0.429309 
v 4.27316 -4.9111 -0.503032 
v 4.22935 -4.9111 -0.501648 
v 4.26958 -4.96649 -0.616221 
v 4.22577 -4.96649 -0.614837 
v 4.26484 -4.99086 -0.766317 
v 4.22103 -4.99086 -0.764933 
v 4.2601 -4.96649 -0.916413 
v 4.21629 -4.96649 -0.915029 
v 4.25652 -4.9111 -1.0296 
v 4.21271 -4.9111 -1.02822 
v 4.25424 -4.85177 -1.10194 
v 4.21043 -4.85177 -1.10056 
v 4.27544 -4.18019 -0.430693 
v 4.23163 -4.18019 -0.429309 
v 4.27732 -4.25256 -0.371389 
v 4.2335 -4.25256 -0.370005 
v 4.27907 -4.36581 -0.31603 
v 4.23525 -4.36581 -0.314646 
v 4.27984 -4.51598 -0.291673 
v 4.23602 -4.51598 -0.290289 
v 4.27907 -4.66615 -0.31603 
v 4.23525 -4.66615 -0.314646 
v 4.27732 -4.7794 -0.371389 
v 4.2335 -4.7794 -0.370005 
v 4.27544 -4.85177 -0.430693 
v 4.23163 -4.85177 -0.429309 

vn -1 0 0.0314961 
vn -1 0 0.0314961 
vn -1 0 0.0314961 
vn -1 0 0.0314961 
vn -1 0 0.0314961 
vn -1 0 0.0314961 
vn -1 0 0.0314961 
vn -1 0 0.0314961 
vn -1 0 0.0314961 
vn -1 0 0.0314961 
vn -1 0 0.0314961 
vn -1 0 0.0314961 
vn -1 0 0.0314961 
vn -1 0 0.0314961 
vn -1 0 0.0314961 
vn -1 0 0.0314961 
vn -1 0 0.0314961 
vn -1 0 0.0314961 
vn -1 0 0.0314961 
vn -1 0 0.0314961 
vn -1 0 0.0314961 
vn -1 0 0.0314961 
vn -1 0 0.0314961 
vn -1 0 0.0314961 
vn -1 0 0.0314961 
vn -1 0 0.0314961 
vn -1 0 0.0314961 
vn -1 0 0.0314961 
vn -1 0 0.0314961 
vn -0.023622 0.708661 -0.708661 
vn -0.023622 0.708661 -0.708661 
vn -0.015748 0.834646 -0.551181 
vn -0.015748 0.834646 -0.551181 
vn -0.00787402 0.944882 -0.314961 
vn -0.00787402 0.944882 -0.314961 
vn 0 1 0 
vn 0 1 0 
vn 0.00787402 0.944882 0.314961 
vn 0.00787402 0.944882 0.314961 
vn 0.015748 0.834646 0.551181 
vn 0.015748 0.834646 0.551181 
vn 0.023622 0.708661 0.708661 
vn 0.023622 0.708661 0.708661 
vn -0.023622 0.708661 -0.708661 
vn -0.023622 0.708661 -0.708661 
vn -0.023622 0.551181 -0.834646 
vn -0.023622 0.551181 -0.834646 
vn -0.0314961 0.314961 -0.944882 
vn -0.0314961 0.314961 -0.944882 
vn -0.0314961 0 -1 
vn -0.0314961 0 -1 
vn -0.0314961 -0.314961 -0.944882 
vn -0.0314961 -0.314961 -0.944882 
vn -0.023622 -0.551181 -0.834646 
vn -0.023622 -0.551181 -0.834646 
vn -0.023622 -0.708661 -0.708661 
vn -0.023622 -0.708661 -0.708661 
vn 1 0 -0.0314961 
vn 1 0 -0.0314961 
vn 1 0 -0.0314961 
vn 1 0 -0.0314961 
vn 1 0 -0.0314961 
vn 1 0 -0.0314961 
vn 1 0 -0.0314961 
vn 1 0 -0.0314961 
vn 1 0 -0.0314961 
vn 1 0 -0.0314961 
vn 1 0 -0.0314961 
vn 1 0 -0.0314961 
vn 1 0 -0.0314961 
vn 1 0 -0.0314961 
vn 1 0 -0.0314961 
vn 1 0 -0.0314961 
vn 1 0 -0.0314961 
vn 1 0 -0.0314961 
vn 1 0 -0.0314961 
vn 1 0 -0.0314961 
vn 1 0 -0.0314961 
vn 1 0 -0.0314961 
vn 1 0 -0.0314961 
vn 1 0 -0.0314961 
vn 1 0 -0.0314961 
vn 1 0 -0.0314961 
vn 1 0 -0.0314961 
vn 1 0 -0.0314961 
vn 1 0 -0.0314961 
vn 0.023622 -0.708661 0.708661 
vn 0.023622 -0.708661 0.708661 
vn 0.015748 -0.834646 0.551181 
vn 0.015748 -0.834646 0.551181 
vn 0.00787402 -0.944882 0.314961 
vn 0.00787402 -0.944882 0.314961 
vn 0 -1 0 
vn 0 -1 0 
vn -0.00787402 -0.944882 -0.314961 
vn -0.00787402 -0.944882 -0.314961 
vn -0.015748 -0.834646 -0.551181 
vn -0.015748 -0.834646 -0.551181 
vn -0.023622 -0.708661 -0.708661 
vn -0.023622 -0.708661 -0.708661 
vn 0.023622 0.708661 0.708661 
vn 0.023622 0.708661 0.708661 
vn 0.023622 0.551181 0.834646 
vn 0.023622 0.551181 0.834646 
vn 0.0314961 0.314961 0.944882 
vn 0.0314961 0.314961 0.944882 
vn 0.0314961 0 1 
vn 0.0314961 0 1 
vn 0.0314961 -0.314961 0.944882 
vn 0.0314961 -0.314961 0.944882 
vn 0.023622 -0.551181 0.834646 
vn 0.023622 -0.551181 0.834646 
vn 0.023622 -0.708661 0.708661 
vn 0.023622 -0.708661 0.708661 

vt 7.55936 -2.30936 
vt 7.60133 -2.26739 
vt 7.60875 -2.27643 
vt 7.61567 -2.29059 
vt 7.61872 -2.30936 
vt 7.61567 -2.32813 
vt 7.60875 -2.34229 
vt 7.60133 -2.35133 
vt 7.60133 -2.35133 
vt 7.59229 -2.35875 
vt 7.57813 -2.36567 
vt 7.55936 -2.36872 
vt 7.54059 -2.36567 
vt 7.52643 -2.35875 
vt 7.51739 -2.35133 
vt 7.51739 -2.35133 
vt 7.50997 -2.34229 
vt 7.50305 -2.32813 
vt 7.5 -2.30936 
vt 7.50305 -2.29059 
vt 7.50997 -2.27643 
vt 7.51739 -2.26739 
vt 7.51739 -2.26739 
vt 7.52643 -2.25997 
vt 7.54059 -2.25305 
vt 7.55936 -2.25 
vt 7.57813 -2.25305 
vt 7.59229 -2.25997 
vt 7.60133 -2.26739 
vt 15.0055 -5.5 
vt 15 -5.5 
vt 15.0055 -5.51979 
vt 15 -5.51979 
vt 15.0055 -5.53957 
vt 15 -5.53957 
vt 15.0055 -5.55936 
vt 15 -5.55936 
vt 15.0055 -5.57915 
vt 15 -5.57915 
vt 15.0055 -5.59893 
vt 15 -5.59893 
vt 15.0055 -5.61872 
vt 15 -5.61872 
vt 15.0055 -5.5 
vt 15 -5.5 
vt 15.0055 -5.51979 
vt 15 -5.51979 
vt 15.0055 -5.53957 
vt 15 -5.53957 
vt 15.0055 -5.55936 
vt 15 -5.55936 
vt 15.0055 -5.57915 
vt 15 -5.57915 
vt 15.0055 -5.59893 
vt 15 -5.59893 
vt 15.0055 -5.61872 
vt 15 -5.61872 
vt 7.55936 -2.30936 
vt 7.60133 -2.26739 
vt 7.60875 -2.27643 
vt 7.61567 -2.29059 
vt 7.61872 -2.30936 
vt 7.61567 -2.32813 
vt 7.60875 -2.34229 
vt 7.60133 -2.35133 
vt 7.60133 -2.35133 
vt 7.59229 -2.35875 
vt 7.57813 -2.36567 
vt 7.55936 -2.36872 
vt 7.54059 -2.36567 
vt 7.52643 -2.35875 
vt 7.51739 -2.35133 
vt 7.51739 -2.35133 
vt 7.50997 -2.34229 
vt 7.50305 -2.32813 
vt 7.5 -2.30936 
vt 7.50305 -2.29059 
vt 7.50997 -2.27643 
vt 7.51739 -2.26739 
vt 7.51739 -2.26739 
vt 7.52643 -2.25997 
vt 7.54059 -2.25305 
vt 7.55936 -2.25 
vt 7.57813 -2.25305 
vt 7.59229 -2.25997 
vt 7.60133 -2.26739 
vt 15.0055 -5.5 
vt 15 -5.5 
vt 15.0055 -5.51979 
vt 15 -5.51979 
vt 15.0055 -5.53957 
vt 15 -5.53957 
vt 15.0055 -5.55936 
vt 15 -5.55936 
vt 15.0055 -5.57915 
vt 15 -5.57915 
vt 15.0055 -5.59893 
vt 15 -5.59893 
vt 15.0055 -5.61872 
vt 15 -5.61872 
vt 15.0055 -5.5 
vt 15 -5.5 
vt 15.0055 -5.51979 
vt 15 -5.51979 
vt 15.0055 -5.53957 
vt 15 -5.53957 
vt 15.0055 -5.55936 
vt 15 -5.55936 
vt 15.0055 -5.57915 
vt 15 -5.57915 
vt 15.0055 -5.59893 
vt 15 -5.59893 
vt 15.0055 -5.61872 
vt 15 -5.61872 

usemtl Part11Mtl

f 355/355/355 357/357/357 356/356/356 
f 355/355/355 358/358/358 357/357/357 
f 355/355/355 359/359/359 358/358/358 
f 355/355/355 360/360/360 359/359/359 
f 355/355/355 361/361/361 360/360/360 
f 355/355/355 362/362/362 361/361/361 
f 355/355/355 364/364/364 363/363/363 
f 355/355/355 365/365/365 364/364/364 
f 355/355/355 366/366/366 365/365/365 
f 355/355/355 367/367/367 366/366/366 
f 355/355/355 368/368/368 367/367/367 
f 355/355/355 369/369/369 368/368/368 
f 355/355/355 371/371/371 370/370/370 
f 355/355/355 372/372/372 371/371/371 
f 355/355/355 373/373/373 372/372/372 
f 355/355/355 374/374/374 373/373/373 
f 355/355/355 375/375/375 374/374/374 
f 355/355/355 376/376/376 375/375/375 
f 355/355/355 378/378/378 377/377/377 
f 355/355/355 379/379/379 378/378/378 
f 355/355/355 380/380/380 379/379/379 
f 355/355/355 381/381/381 380/380/380 
f 355/355/355 382/382/382 381/381/381 
f 355/355/355 383/383/383 382/382/382 
f 384/384/384 385/385/385 386/386/386 
f 386/386/386 385/385/385 387/387/387 
f 386/386/386 387/387/387 388/388/388 
f 388/388/388 387/387/387 389/389/389 
f 388/388/388 389/389/389 390/390/390 
f 390/390/390 389/389/389 391/391/391 
f 390/390/390 391/391/391 392/392/392 
f 392/392/392 391/391/391 393/393/393 
f 392/392/392 393/393/393 394/394/394 
f 394/394/394 393/393/393 395/395/395 
f 394/394/394 395/395/395 396/396/396 
f 396/396/396 395/395/395 397/397/397 
f 398/398/398 399/399/399 400/400/400 
f 400/400/400 399/399/399 401/401/401 
f 400/400/400 401/401/401 402/402/402 
f 402/402/402 401/401/401 403/403/403 
f 402/402/402 403/403/403 404/404/404 
f 404/404/404 403/403/403 405/405/405 
f 404/404/404 405/405/405 406/406/406 
f 406/406/406 405/405/405 407/407/407 
f 406/406/406 407/407/407 408/408/408 
f 408/408/408 407/407/407 409/409/409 
f 408/408/408 409/409/409 410/410/410 
f 410/410/410 409/409/409 411/411/411 
f 412/412/412 414/414/414 413/413/413 
f 412/412/412 415/415/415 414/414/414 
f 412/412/412 416/416/416 415/415/415 
f 412/412/412 417/417/417 416/416/416 
f 412/412/412 418/418/418 417/417/417 
f 412/412/412 419/419/419 418/418/418 
f 412/412/412 421/421/421 420/420/420 
f 412/412/412 422/422/422 421/421/421 
f 412/412/412 423/423/423 422/422/422 
f 412/412/412 424/424/424 423/423/423 
f 412/412/412 425/425/425 424/424/424 
f 412/412/412 426/426/426 425/425/425 
f 412/412/412 428/428/428 427/427/427 
f 412/412/412 429/429/429 428/428/428 
f 412/412/412 430/430/430 429/429/429 
f 412/412/412 431/431/431 430/430/430 
f 412/412/412 432/432/432 431/431/431 
f 412/412/412 433/433/433 432/432/432 
f 412/412/412 435/435/435 434/434/434 
f 412/412/412 436/436/436 435/435/435 
f 412/412/412 437/437/437 436/436/436 
f 412/412/412 438/438/438 437/437/437 
f 412/412/412 439/439/439 438/438/438 
f 412/412/412 440/440/440 439/439/439 
f 441/441/441 442/442/442 443/443/443 
f 443/443/443 442/442/442 444/444/444 
f 443/443/443 444/444/444 445/445/445 
f 445/445/445 444/444/444 446/446/446 
f 445/445/445 446/446/446 447/447/447 
f 447/447/447 446/446/446 448/448/448 
f 447/447/447 448/448/448 449/449/449 
f 449/449/449 448/448/448 450/450/450 
f 449/449/449 450/450/450 451/451/451 
f 451/451/451 450/450/450 452/452/452 
f 451/451/451 452/452/452 453/453/453 
f 453/453/453 452/452/452 454/454/454 
f 455/455/455 456/456/456 457/457/457 
f 457/457/457 456/456/456 458/458/458 
f 457/457/457 458/458/458 459/459/459 
f 459/459/459 458/458/458 460/460/460 
f 459/459/459 460/460/460 461/461/461 
f 461/461/461 460/460/460 462/462/462 
f 461/461/461 462/462/462 463/463/463 
f 463/463/463 462/462/462 464/464/464 
f 463/463/463 464/464/464 465/465/465 
f 465/465/465 464/464/464 466/466/466 
f 465/465/465 466/466/466 467/467/467 
f 467/467/467 466/466/466 468/468/468 

g Part13

v 4.46661 -2.94522 -1.32102 
v 5.4159 -2.94522 -1.351 
v 4.46661 -3.67581 -1.32102 
v 5.4159 -3.67581 -1.351 
v 5.42974 -2.94522 -0.91287 
v 5.4159 -2.94522 -1.351 
v 4.48045 -2.94522 -0.882882 
v 4.46661 -2.94522 -1.32102 
v 5.4159 -2.94522 -1.351 
v 5.42974 -2.94522 -0.91287 
v 5.4159 -3.67581 -1.351 
v 5.42974 -3.67581 -0.91287 
v 5.42974 -2.94522 -0.91287 
v 4.48045 -2.94522 -0.882882 
v 5.42974 -3.67581 -0.91287 
v 4.48045 -3.67581 -0.882882 
v 4.48045 -3.67581 -0.882882 
v 4.46661 -3.67581 -1.32102 
v 5.42974 -3.67581 -0.91287 
v 5.4159 -3.67581 -1.351 
v 4.48045 -2.94522 -0.882882 
v 4.46661 -2.94522 -1.32102 
v 4.48045 -3.67581 -0.882882 
v 4.46661 -3.67581 -1.32102 

vn -0.0314961 0 -1 
vn -0.0314961 0 -1 
vn -0.0314961 0 -1 
vn -0.0314961 0 -1 
vn 0 1 0 
vn 0 1 0 
vn 0 1 0 
vn 0 1 0 
vn 1 0 -0.0314961 
vn 1 0 -0.0314961 
vn 1 0 -0.0314961 
vn 1 0 -0.0314961 
vn 0.0314961 0 1 
vn 0.0314961 0 1 
vn 0.0314961 0 1 
vn 0.0314961 0 1 
vn 0 -1 0 
vn 0 -1 0 
vn 0 -1 0 
vn 0 -1 0 
vn -1 0 0.0314961 
vn -1 0 0.0314961 
vn -1 0 0.0314961 
vn -1 0 0.0314961 

vt 5.86872 -2.5 
vt 5.75 -2.5 
vt 5.86872 -2.59132 
vt 5.75 -2.59132 
vt 5.80479 -2.5 
vt 5.75 -2.5 
vt 5.80479 -2.61872 
vt 5.75 -2.61872 
vt 5.80479 -2.5 
vt 5.75 -2.5 
vt 5.80479 -2.59132 
vt 5.75 -2.59132 
vt 5.86872 -2.5 
vt 5.75 -2.5 
vt 5.86872 -2.59132 
vt 5.75 -2.59132 
vt 5.80479 -2.5 
vt 5.75 -2.5 
vt 5.80479 -2.61872 
vt 5.75 -2.61872 
vt 5.80479 -2.5 
vt 5.75 -2.5 
vt 5.80479 -2.59132 
vt 5.75 -2.59132 

usemtl Part13Mtl

f 469/469/469 470/470/470 471/471/471 
f 471/471/471 470/470/470 472/472/472 
f 473/473/473 474/474/474 475/475/475 
f 475/475/475 474/474/474 476/476/476 
f 477/477/477 478/478/478 479/479/479 
f 479/479/479 478/478/478 480/480/480 
f 481/481/481 482/482/482 483/483/483 
f 483/483/483 482/482/482 484/484/484 
f 485/485/485 486/486/486 487/487/487 
f 487/487/487 486/486/486 488/488/488 
f 489/489/489 490/490/490 491/491/491 
f 491/491/491 490/490/490 492/492/492 

g Part14

v 4.46659 -2.72605 -1.32096 
v 5.41588 -2.72605 -1.35094 
v 4.46659 -2.94523 -1.32096 
v 5.41588 -2.94523 -1.35094 
v 5.52891 -2.72605 2.22714 
v 5.41588 -2.72605 -1.35094 
v 4.57962 -2.72605 2.25713 
v 4.46659 -2.72605 -1.32096 
v 5.41588 -2.72605 -1.35094 
v 5.52891 -2.72605 2.22714 
v 5.41588 -2.94523 -1.35094 
v 5.52891 -2.94523 2.22714 
v 5.52891 -2.72605 2.22714 
v 4.57962 -2.72605 2.25713 
v 5.52891 -2.94523 2.22714 
v 4.57962 -2.94523 2.25713 
v 4.57962 -2.94523 2.25713 
v 4.46659 -2.94523 -1.32096 
v 5.52891 -2.94523 2.22714 
v 5.41588 -2.94523 -1.35094 
v 4.57962 -2.72605 2.25713 
v 4.46659 -2.72605 -1.32096 
v 4.57962 -2.94523 2.25713 
v 4.46659 -2.94523 -1.32096 

vn -0.0314961 0 -1 
vn -0.0314961 0 -1 
vn -0.0314961 0 -1 
vn -0.0314961 0 -1 
vn 0 1 0 
vn 0 1 0 
vn 0 1 0 
vn 0 1 0 
vn 1 0 -0.0314961 
vn 1 0 -0.0314961 
vn 1 0 -0.0314961 
vn 1 0 -0.0314961 
vn 0.0314961 0 1 
vn 0.0314961 0 1 
vn 0.0314961 0 1 
vn 0.0314961 0 1 
vn 0 -1 0 
vn 0 -1 0 
vn 0 -1 0 
vn 0 -1 0 
vn -1 0 0.0314961 
vn -1 0 0.0314961 
vn -1 0 0.0314961 
vn -1 0 0.0314961 

vt 6.11872 -1 
vt 6 -1 
vt 6.11872 -1.0274 
vt 6 -1.0274 
vt 6.44748 -1 
vt 6 -1 
vt 6.44748 -1.11872 
vt 6 -1.11872 
vt 6.44748 -1 
vt 6 -1 
vt 6.44748 -1.0274 
vt 6 -1.0274 
vt 6.11872 -1 
vt 6 -1 
vt 6.11872 -1.0274 
vt 6 -1.0274 
vt 6.44748 -1 
vt 6 -1 
vt 6.44748 -1.11872 
vt 6 -1.11872 
vt 6.44748 -1 
vt 6 -1 
vt 6.44748 -1.0274 
vt 6 -1.0274 

usemtl Part13Mtl

f 493/493/493 494/494/494 495/495/495 
f 495/495/495 494/494/494 496/496/496 
f 497/497/497 498/498/498 499/499/499 
f 499/499/499 498/498/498 500/500/500 
f 501/501/501 502/502/502 503/503/503 
f 503/503/503 502/502/502 504/504/504 
f 505/505/505 506/506/506 507/507/507 
f 507/507/507 506/506/506 508/508/508 
f 509/509/509 510/510/510 511/511/511 
f 511/511/511 510/510/510 512/512/512 
f 513/513/513 514/514/514 515/515/515 
f 515/515/515 514/514/514 516/516/516 

g Part15

v 4.56578 -2.94522 1.81897 
v 5.51507 -2.94522 1.78898 
v 4.56578 -3.67581 1.81897 
v 5.51507 -3.67581 1.78898 
v 5.52891 -2.94522 2.22711 
v 5.51507 -2.94522 1.78898 
v 4.57962 -2.94522 2.2571 
v 4.56578 -2.94522 1.81897 
v 5.51507 -2.94522 1.78898 
v 5.52891 -2.94522 2.22711 
v 5.51507 -3.67581 1.78898 
v 5.52891 -3.67581 2.22711 
v 5.52891 -2.94522 2.22711 
v 4.57962 -2.94522 2.2571 
v 5.52891 -3.67581 2.22711 
v 4.57962 -3.67581 2.2571 
v 4.57962 -3.67581 2.2571 
v 4.56578 -3.67581 1.81897 
v 5.52891 -3.67581 2.22711 
v 5.51507 -3.67581 1.78898 
v 4.57962 -2.94522 2.2571 
v 4.56578 -2.94522 1.81897 
v 4.57962 -3.67581 2.2571 
v 4.56578 -3.67581 1.81897 

vn -0.0314961 0 -1 
vn -0.0314961 0 -1 
vn -0.0314961 0 -1 
vn -0.0314961 0 -1 
vn 0 1 0 
vn 0 1 0 
vn 0 1 0 
vn 0 1 0 
vn 1 0 -0.0314961 
vn 1 0 -0.0314961 
vn 1 0 -0.0314961 
vn 1 0 -0.0314961 
vn 0.0314961 0 1 
vn 0.0314961 0 1 
vn 0.0314961 0 1 
vn 0.0314961 0 1 
vn 0 -1 0 
vn 0 -1 0 
vn 0 -1 0 
vn 0 -1 0 
vn -1 0 0.0314961 
vn -1 0 0.0314961 
vn -1 0 0.0314961 
vn -1 0 0.0314961 

vt 4.36872 0.75 
vt 4.25 0.75 
vt 4.36872 0.658677 
vt 4.25 0.658677 
vt 4.30479 0.75 
vt 4.25 0.75 
vt 4.30479 0.63128 
vt 4.25 0.63128 
vt 4.30479 0.75 
vt 4.25 0.75 
vt 4.30479 0.658677 
vt 4.25 0.658677 
vt 4.36872 0.75 
vt 4.25 0.75 
vt 4.36872 0.658677 
vt 4.25 0.658677 
vt 4.30479 0.75 
vt 4.25 0.75 
vt 4.30479 0.63128 
vt 4.25 0.63128 
vt 4.30479 0.75 
vt 4.25 0.75 
vt 4.30479 0.658677 
vt 4.25 0.658677 

usemtl Part13Mtl

f 517/517/517 518/518/518 519/519/519 
f 519/519/519 518/518/518 520/520/520 
f 521/521/521 522/522/522 523/523/523 
f 523/523/523 522/522/522 524/524/524 
f 525/525/525 526/526/526 527/527/527 
f 527/527/527 526/526/526 528/528/528 
f 529/529/529 530/530/530 531/531/531 
f 531/531/531 530/530/530 532/532/532 
f 533/533/533 534/534/534 535/535/535 
f 535/535/535 534/534/534 536/536/536 
f 537/537/537 538/538/538 539/539/539 
f 539/539/539 538/538/538 540/540/540 

g Central1

v 4.23603 -3.67581 -1.67912 
v 5.69647 -3.67581 -1.72526 
v 4.23603 -5.42921 -1.67912 
v 5.69647 -5.42921 -1.72526 
v 5.83257 -3.67581 2.58305 
v 5.69647 -3.67581 -1.72526 
v 4.37213 -3.67581 2.62919 
v 4.23603 -3.67581 -1.67912 
v 5.69647 -3.67581 -1.72526 
v 5.83257 -3.67581 2.58305 
v 5.69647 -5.42921 -1.72526 
v 5.83257 -5.42921 2.58305 
v 5.83257 -3.67581 2.58305 
v 4.37213 -3.67581 2.62919 
v 5.83257 -5.42921 2.58305 
v 4.37213 -5.42921 2.62919 
v 4.37213 -5.42921 2.62919 
v 4.23603 -5.42921 -1.67912 
v 5.83257 -5.42921 2.58305 
v 5.69647 -5.42921 -1.72526 
v 4.37213 -3.67581 2.62919 
v 4.23603 -3.67581 -1.67912 
v 4.37213 -5.42921 2.62919 
v 4.23603 -5.42921 -1.67912 

vn -0.0314961 0 -1 
vn -0.0314961 0 -1 
vn -0.0314961 0 -1 
vn -0.0314961 0 -1 
vn 0 1 0 
vn 0 1 0 
vn 0 1 0 
vn 0 1 0 
vn 1 0 -0.0314961 
vn 1 0 -0.0314961 
vn 1 0 -0.0314961 
vn 1 0 -0.0314961 
vn 0.0314961 0 1 
vn 0.0314961 0 1 
vn 0.0314961 0 1 
vn 0.0314961 0 1 
vn 0 -1 0 
vn 0 -1 0 
vn 0 -1 0 
vn 0 -1 0 
vn -1 0 0.0314961 
vn -1 0 0.0314961 
vn -1 0 0.0314961 
vn -1 0 0.0314961 

vt 5.43265 -6.5 
vt 5.25 -6.5 
vt 5.43265 -6.71918 
vt 5.25 -6.71918 
vt 5.78881 -6.5 
vt 5.25 -6.5 
vt 5.78881 -6.68265 
vt 5.25 -6.68265 
vt 5.78881 -6.5 
vt 5.25 -6.5 
vt 5.78881 -6.71918 
vt 5.25 -6.71918 
vt 5.43265 -6.5 
vt 5.25 -6.5 
vt 5.43265 -6.71918 
vt 5.25 -6.71918 
vt 5.78881 -6.5 
vt 5.25 -6.5 
vt 5.78881 -6.68265 
vt 5.25 -6.68265 
vt 5.78881 -6.5 
vt 5.25 -6.5 
vt 5.78881 -6.71918 
vt 5.25 -6.71918 

usemtl Central1Mtl

f 541/541/541 542/542/542 543/543/543 
f 543/543/543 542/542/542 544/544/544 
f 545/545/545 546/546/546 547/547/547 
f 547/547/547 546/546/546 548/548/548 
f 549/549/549 550/550/550 551/551/551 
f 551/551/551 550/550/550 552/552/552 
f 553/553/553 554/554/554 555/555/555 
f 555/555/555 554/554/554 556/556/556 
f 557/557/557 558/558/558 559/559/559 
f 559/559/559 558/558/558 560/560/560 
f 561/561/561 562/562/562 563/563/563 
f 563/563/563 562/562/562 564/564/564 

g Part16

v 7.63937 2.21224 -4.95597 
v 7.63937 5.42922 4.70851 
v 7.63937 1.46882 -4.70851 
v 7.63937 4.68579 4.95597 
v 5.28879 5.42922 4.70851 
v 7.63937 5.42922 4.70851 
v 5.28879 2.21224 -4.95597 
v 7.63937 2.21224 -4.95597 
v 7.63937 5.42922 4.70851 
v 5.28879 5.42922 4.70851 
v 7.63937 4.68579 4.95597 
v 5.28879 4.68579 4.95597 
v 5.28879 5.42922 4.70851 
v 5.28879 2.21224 -4.95597 
v 5.28879 4.68579 4.95597 
v 5.28879 1.46882 -4.70851 
v 5.28879 1.46882 -4.70851 
v 7.63937 1.46882 -4.70851 
v 5.28879 4.68579 4.95597 
v 7.63937 4.68579 4.95597 
v 5.28879 2.21224 -4.95597 
v 7.63937 2.21224 -4.95597 
v 5.28879 1.46882 -4.70851 
v 7.63937 1.46882 -4.70851 

vn 1 0 0 
vn 1 0 0 
vn 1 0 0 
vn 1 0 0 
vn 0 0.944882 -0.314961 
vn 0 0.944882 -0.314961 
vn 0 0.944882 -0.314961 
vn 0 0.944882 -0.314961 
vn 0 0.314961 0.944882 
vn 0 0.314961 0.944882 
vn 0 0.314961 0.944882 
vn 0 0.314961 0.944882 
vn -1 0 0 
vn -1 0 0 
vn -1 0 0 
vn -1 0 0 
vn 0 -0.944882 0.314961 
vn 0 -0.944882 0.314961 
vn 0 -0.944882 0.314961 
vn 0 -0.944882 0.314961 
vn 0 -0.314961 -0.944882 
vn 0 -0.314961 -0.944882 
vn 0 -0.314961 -0.944882 
vn 0 -0.314961 -0.944882 

vt 7.02323 -5 
vt 5.75 -5 
vt 7.02323 -5.09794 
vt 5.75 -5.09794 
vt 6.04382 -5 
vt 5.75 -5 
vt 6.04382 -6.27323 
vt 5.75 -6.27323 
vt 6.04382 -5 
vt 5.75 -5 
vt 6.04382 -5.09794 
vt 5.75 -5.09794 
vt 7.02323 -5 
vt 5.75 -5 
vt 7.02323 -5.09794 
vt 5.75 -5.09794 
vt 6.04382 -5 
vt 5.75 -5 
vt 6.04382 -6.27323 
vt 5.75 -6.27323 
vt 6.04382 -5 
vt 5.75 -5 
vt 6.04382 -5.09794 
vt 5.75 -5.09794 

usemtl Part16Mtl

f 565/565/565 566/566/566 567/567/567 
f 567/567/567 566/566/566 568/568/568 
f 569/569/569 570/570/570 571/571/571 
f 571/571/571 570/570/570 572/572/572 
f 573/573/573 574/574/574 575/575/575 
f 575/575/575 574/574/574 576/576/576 
f 577/577/577 578/578/578 579/579/579 
f 579/579/579 578/578/578 580/580/580 
f 581/581/581 582/582/582 583/583/583 
f 583/583/583 582/582/582 584/584/584 
f 585/585/585 586/586/586 587/587/587 
f 587/587/587 586/586/586 588/588/588 

g Part17

v 2.1547 2.21224 -4.95597 
v 2.1547 5.42922 4.70851 
v 2.1547 1.46882 -4.70851 
v 2.1547 4.68579 4.95597 
v 0.587645 5.42922 4.70851 
v 2.1547 5.42922 4.70851 
v 0.587645 2.21224 -4.95597 
v 2.1547 2.21224 -4.95597 
v 2.1547 5.42922 4.70851 
v 0.587645 5.42922 4.70851 
v 2.1547 4.68579 4.95597 
v 0.587645 4.68579 4.95597 
v 0.587645 5.42922 4.70851 
v 0.587645 2.21224 -4.95597 
v 0.587645 4.68579 4.95597 
v 0.587645 1.46882 -4.70851 
v 0.587645 1.46882 -4.70851 
v 2.1547 1.46882 -4.70851 
v 0.587645 4.68579 4.95597 
v 2.1547 4.68579 4.95597 
v 0.587645 2.21224 -4.95597 
v 2.1547 2.21224 -4.95597 
v 0.587645 1.46882 -4.70851 
v 2.1547 1.46882 -4.70851 

vn 1 0 0 
vn 1 0 0 
vn 1 0 0 
vn 1 0 0 
vn 0 0.944882 -0.314961 
vn 0 0.944882 -0.314961 
vn 0 0.944882 -0.314961 
vn 0 0.944882 -0.314961 
vn 0 0.314961 0.944882 
vn 0 0.314961 0.944882 
vn 0 0.314961 0.944882 
vn 0 0.314961 0.944882 
vn -1 0 0 
vn -1 0 0 
vn -1 0 0 
vn -1 0 0 
vn 0 -0.944882 0.314961 
vn 0 -0.944882 0.314961 
vn 0 -0.944882 0.314961 
vn 0 -0.944882 0.314961 
vn 0 -0.314961 -0.944882 
vn 0 -0.314961 -0.944882 
vn 0 -0.314961 -0.944882 
vn 0 -0.314961 -0.944882 

vt 2.77323 -3.75 
vt 1.5 -3.75 
vt 2.77323 -3.84794 
vt 1.5 -3.84794 
vt 1.69588 -3.75 
vt 1.5 -3.75 
vt 1.69588 -5.02323 
vt 1.5 -5.02323 
vt 1.69588 -3.75 
vt 1.5 -3.75 
vt 1.69588 -3.84794 
vt 1.5 -3.84794 
vt 2.77323 -3.75 
vt 1.5 -3.75 
vt 2.77323 -3.84794 
vt 1.5 -3.84794 
vt 1.69588 -3.75 
vt 1.5 -3.75 
vt 1.69588 -5.02323 
vt 1.5 -5.02323 
vt 1.69588 -3.75 
vt 1.5 -3.75 
vt 1.69588 -3.84794 
vt 1.5 -3.84794 

usemtl Part17Mtl

f 589/589/589 590/590/590 591/591/591 
f 591/591/591 590/590/590 592/592/592 
f 593/593/593 594/594/594 595/595/595 
f 595/595/595 594/594/594 596/596/596 
f 597/597/597 598/598/598 599/599/599 
f 599/599/599 598/598/598 600/600/600 
f 601/601/601 602/602/602 603/603/603 
f 603/603/603 602/602/602 604/604/604 
f 605/605/605 606/606/606 607/607/607 
f 607/607/607 606/606/606 608/608/608 
f 609/609/609 610/610/610 611/611/611 
f 611/611/611 610/610/610 612/612/612 

g Part18

v 0.587648 2.21224 -4.95597 
v 0.587648 5.42922 4.70851 
v 0.587648 1.46882 -4.70851 
v 0.587648 4.68579 4.95597 
v -0.979402 5.42922 4.70851 
v 0.587648 5.42922 4.70851 
v -0.979402 2.21224 -4.95597 
v 0.587648 2.21224 -4.95597 
v 0.587648 5.42922 4.70851 
v -0.979402 5.42922 4.70851 
v 0.587648 4.68579 4.95597 
v -0.979402 4.68579 4.95597 
v -0.979402 5.42922 4.70851 
v -0.979402 2.21224 -4.95597 
v -0.979402 4.68579 4.95597 
v -0.979402 1.46882 -4.70851 
v -0.979402 1.46882 -4.70851 
v 0.587648 1.46882 -4.70851 
v -0.979402 4.68579 4.95597 
v 0.587648 4.68579 4.95597 
v -0.979402 2.21224 -4.95597 
v 0.587648 2.21224 -4.95597 
v -0.979402 1.46882 -4.70851 
v 0.587648 1.46882 -4.70851 

vn 1 0 0 
vn 1 0 0 
vn 1 0 0 
vn 1 0 0 
vn 0 0.944882 -0.314961 
vn 0 0.944882 -0.314961 
vn 0 0.944882 -0.314961 
vn 0 0.944882 -0.314961 
vn 0 0.314961 0.944882 
vn 0 0.314961 0.944882 
vn 0 0.314961 0.944882 
vn 0 0.314961 0.944882 
vn -1 0 0 
vn -1 0 0 
vn -1 0 0 
vn -1 0 0 
vn 0 -0.944882 0.314961 
vn 0 -0.944882 0.314961 
vn 0 -0.944882 0.314961 
vn 0 -0.944882 0.314961 
vn 0 -0.314961 -0.944882 
vn 0 -0.314961 -0.944882 
vn 0 -0.314961 -0.944882 
vn 0 -0.314961 -0.944882 

vt 7.02323 -2 
vt 5.75 -2 
vt 7.02323 -2.09794 
vt 5.75 -2.09794 
vt 5.94588 -2 
vt 5.75 -2 
vt 5.94588 -3.27323 
vt 5.75 -3.27323 
vt 5.94588 -2 
vt 5.75 -2 
vt 5.94588 -2.09794 
vt 5.75 -2.09794 
vt 7.02323 -2 
vt 5.75 -2 
vt 7.02323 -2.09794 
vt 5.75 -2.09794 
vt 5.94588 -2 
vt 5.75 -2 
vt 5.94588 -3.27323 
vt 5.75 -3.27323 
vt 5.94588 -2 
vt 5.75 -2 
vt 5.94588 -2.09794 
vt 5.75 -2.09794 

usemtl Part16Mtl

f 613/613/613 614/614/614 615/615/615 
f 615/615/615 614/614/614 616/616/616 
f 617/617/617 618/618/618 619/619/619 
f 619/619/619 618/618/618 620/620/620 
f 621/621/621 622/622/622 623/623/623 
f 623/623/623 622/622/622 624/624/624 
f 625/625/625 626/626/626 627/627/627 
f 627/627/627 626/626/626 628/628/628 
f 629/629/629 630/630/630 631/631/631 
f 631/631/631 630/630/630 632/632/632 
f 633/633/633 634/634/634 635/635/635 
f 635/635/635 634/634/634 636/636/636 

g Part19

v 3.72174 2.21224 -4.95597 
v 3.72174 5.42922 4.70851 
v 3.72174 1.46882 -4.70851 
v 3.72174 4.68579 4.95597 
v 2.15469 5.42922 4.70851 
v 3.72174 5.42922 4.70851 
v 2.15469 2.21224 -4.95597 
v 3.72174 2.21224 -4.95597 
v 3.72174 5.42922 4.70851 
v 2.15469 5.42922 4.70851 
v 3.72174 4.68579 4.95597 
v 2.15469 4.68579 4.95597 
v 2.15469 5.42922 4.70851 
v 2.15469 2.21224 -4.95597 
v 2.15469 4.68579 4.95597 
v 2.15469 1.46882 -4.70851 
v 2.15469 1.46882 -4.70851 
v 3.72174 1.46882 -4.70851 
v 2.15469 4.68579 4.95597 
v 3.72174 4.68579 4.95597 
v 2.15469 2.21224 -4.95597 
v 3.72174 2.21224 -4.95597 
v 2.15469 1.46882 -4.70851 
v 3.72174 1.46882 -4.70851 

vn 1 0 0 
vn 1 0 0 
vn 1 0 0 
vn 1 0 0 
vn 0 0.944882 -0.314961 
vn 0 0.944882 -0.314961 
vn 0 0.944882 -0.314961 
vn 0 0.944882 -0.314961 
vn 0 0.314961 0.944882 
vn 0 0.314961 0.944882 
vn 0 0.314961 0.944882 
vn 0 0.314961 0.944882 
vn -1 0 0 
vn -1 0 0 
vn -1 0 0 
vn -1 0 0 
vn 0 -0.944882 0.314961 
vn 0 -0.944882 0.314961 
vn 0 -0.944882 0.314961 
vn 0 -0.944882 0.314961 
vn 0 -0.314961 -0.944882 
vn 0 -0.314961 -0.944882 
vn 0 -0.314961 -0.944882 
vn 0 -0.314961 -0.944882 

vt 8.52323 1 
vt 7.25 1 
vt 8.52323 0.902059 
vt 7.25 0.902059 
vt 7.44588 1 
vt 7.25 1 
vt 7.44588 -0.273229 
vt 7.25 -0.273229 
vt 7.44588 1 
vt 7.25 1 
vt 7.44588 0.902059 
vt 7.25 0.902059 
vt 8.52323 1 
vt 7.25 1 
vt 8.52323 0.902059 
vt 7.25 0.902059 
vt 7.44588 1 
vt 7.25 1 
vt 7.44588 -0.273229 
vt 7.25 -0.273229 
vt 7.44588 1 
vt 7.25 1 
vt 7.44588 0.902059 
vt 7.25 0.902059 

usemtl Part16Mtl

f 637/637/637 638/638/638 639/639/639 
f 639/639/639 638/638/638 640/640/640 
f 641/641/641 642/642/642 643/643/643 
f 643/643/643 642/642/642 644/644/644 
f 645/645/645 646/646/646 647/647/647 
f 647/647/647 646/646/646 648/648/648 
f 649/649/649 650/650/650 651/651/651 
f 651/651/651 650/650/650 652/652/652 
f 653/653/653 654/654/654 655/655/655 
f 655/655/655 654/654/654 656/656/656 
f 657/657/657 658/658/658 659/659/659 
f 659/659/659 658/658/658 660/660/660 

g Part20

v 5.2888 2.21224 -4.95597 
v 5.2888 5.42922 4.70851 
v 5.2888 1.46882 -4.70851 
v 5.2888 4.68579 4.95597 
v 3.72175 5.42922 4.70851 
v 5.2888 5.42922 4.70851 
v 3.72175 2.21224 -4.95597 
v 5.2888 2.21224 -4.95597 
v 5.2888 5.42922 4.70851 
v 3.72175 5.42922 4.70851 
v 5.2888 4.68579 4.95597 
v 3.72175 4.68579 4.95597 
v 3.72175 5.42922 4.70851 
v 3.72175 2.21224 -4.95597 
v 3.72175 4.68579 4.95597 
v 3.72175 1.46882 -4.70851 
v 3.72175 1.46882 -4.70851 
v 5.2888 1.46882 -4.70851 
v 3.72175 4.68579 4.95597 
v 5.2888 4.68579 4.95597 
v 3.72175 2.21224 -4.95597 
v 5.2888 2.21224 -4.95597 
v 3.72175 1.46882 -4.70851 
v 5.2888 1.46882 -4.70851 

vn 1 0 0 
vn 1 0 0 
vn 1 0 0 
vn 1 0 0 
vn 0 0.944882 -0.314961 
vn 0 0.944882 -0.314961 
vn 0 0.944882 -0.314961 
vn 0 0.944882 -0.314961 
vn 0 0.314961 0.944882 
vn 0 0.314961 0.944882 
vn 0 0.314961 0.944882 
vn 0 0.314961 0.944882 
vn -1 0 0 
vn -1 0 0 
vn -1 0 0 
vn -1 0 0 
vn 0 -0.944882 0.314961 
vn 0 -0.944882 0.314961 
vn 0 -0.944882 0.314961 
vn 0 -0.944882 0.314961 
vn 0 -0.314961 -0.944882 
vn 0 -0.314961 -0.944882 
vn 0 -0.314961 -0.944882 
vn 0 -0.314961 -0.944882 

vt 9.02323 -1 
vt 7.75 -1 
vt 9.02323 -1.09794 
vt 7.75 -1.09794 
vt 7.94588 -1 
vt 7.75 -1 
vt 7.94588 -2.27323 
vt 7.75 -2.27323 
vt 7.94588 -1 
vt 7.75 -1 
vt 7.94588 -1.09794 
vt 7.75 -1.09794 
vt 9.02323 -1 
vt 7.75 -1 
vt 9.02323 -1.09794 
vt 7.75 -1.09794 
vt 7.94588 -1 
vt 7.75 -1 
vt 7.94588 -2.27323 
vt 7.75 -2.27323 
vt 7.94588 -1 
vt 7.75 -1 
vt 7.94588 -1.09794 
vt 7.75 -1.09794 

usemtl Part17Mtl

f 661/661/661 662/662/662 663/663/663 
f 663/663/663 662/662/662 664/664/664 
f 665/665/665 666/666/666 667/667/667 
f 667/667/667 666/666/666 668/668/668 
f 669/669/669 670/670/670 671/671/671 
f 671/671/671 670/670/670 672/672/672 
f 673/673/673 674/674/674 675/675/675 
f 675/675/675 674/674/674 676/676/676 
f 677/677/677 678/678/678 679/679/679 
f 679/679/679 678/678/678 680/680/680 
f 681/681/681 682/682/682 683/683/683 
f 683/683/683 682/682/682 684/684/684 

g Part21

v -2.54646 2.21224 -4.95597 
v -2.54646 5.42922 4.70851 
v -2.54646 1.46882 -4.70851 
v -2.54646 4.68579 4.95597 
v -4.11351 5.42922 4.70851 
v -2.54646 5.42922 4.70851 
v -4.11351 2.21224 -4.95597 
v -2.54646 2.21224 -4.95597 
v -2.54646 5.42922 4.70851 
v -4.11351 5.42922 4.70851 
v -2.54646 4.68579 4.95597 
v -4.11351 4.68579 4.95597 
v -4.11351 5.42922 4.70851 
v -4.11351 2.21224 -4.95597 
v -4.11351 4.68579 4.95597 
v -4.11351 1.46882 -4.70851 
v -4.11351 1.46882 -4.70851 
v -2.54646 1.46882 -4.70851 
v -4.11351 4.68579 4.95597 
v -2.54646 4.68579 4.95597 
v -4.11351 2.21224 -4.95597 
v -2.54646 2.21224 -4.95597 
v -4.11351 1.46882 -4.70851 
v -2.54646 1.46882 -4.70851 

vn 1 0 0 
vn 1 0 0 
vn 1 0 0 
vn 1 0 0 
vn 0 0.944882 -0.314961 
vn 0 0.944882 -0.314961 
vn 0 0.944882 -0.314961 
vn 0 0.944882 -0.314961 
vn 0 0.314961 0.944882 
vn 0 0.314961 0.944882 
vn 0 0.314961 0.944882 
vn 0 0.314961 0.944882 
vn -1 0 0 
vn -1 0 0 
vn -1 0 0 
vn -1 0 0 
vn 0 -0.944882 0.314961 
vn 0 -0.944882 0.314961 
vn 0 -0.944882 0.314961 
vn 0 -0.944882 0.314961 
vn 0 -0.314961 -0.944882 
vn 0 -0.314961 -0.944882 
vn 0 -0.314961 -0.944882 
vn 0 -0.314961 -0.944882 

vt 7.27323 0.25 
vt 6 0.25 
vt 7.27323 0.152059 
vt 6 0.152059 
vt 6.19588 0.25 
vt 6 0.25 
vt 6.19588 -1.02323 
vt 6 -1.02323 
vt 6.19588 0.25 
vt 6 0.25 
vt 6.19588 0.152059 
vt 6 0.152059 
vt 7.27323 0.25 
vt 6 0.25 
vt 7.27323 0.152059 
vt 6 0.152059 
vt 6.19588 0.25 
vt 6 0.25 
vt 6.19588 -1.02323 
vt 6 -1.02323 
vt 6.19588 0.25 
vt 6 0.25 
vt 6.19588 0.152059 
vt 6 0.152059 

usemtl Part16Mtl

f 685/685/685 686/686/686 687/687/687 
f 687/687/687 686/686/686 688/688/688 
f 689/689/689 690/690/690 691/691/691 
f 691/691/691 690/690/690 692/692/692 
f 693/693/693 694/694/694 695/695/695 
f 695/695/695 694/694/694 696/696/696 
f 697/697/697 698/698/698 699/699/699 
f 699/699/699 698/698/698 700/700/700 
f 701/701/701 702/702/702 703/703/703 
f 703/703/703 702/702/702 704/704/704 
f 705/705/705 706/706/706 707/707/707 
f 707/707/707 706/706/706 708/708/708 

g Part22

v -0.979406 2.21224 -4.95597 
v -0.979406 5.42922 4.70851 
v -0.979406 1.46882 -4.70851 
v -0.979406 4.68579 4.95597 
v -2.54646 5.42922 4.70851 
v -0.979406 5.42922 4.70851 
v -2.54646 2.21224 -4.95597 
v -0.979406 2.21224 -4.95597 
v -0.979406 5.42922 4.70851 
v -2.54646 5.42922 4.70851 
v -0.979406 4.68579 4.95597 
v -2.54646 4.68579 4.95597 
v -2.54646 5.42922 4.70851 
v -2.54646 2.21224 -4.95597 
v -2.54646 4.68579 4.95597 
v -2.54646 1.46882 -4.70851 
v -2.54646 1.46882 -4.70851 
v -0.979406 1.46882 -4.70851 
v -2.54646 4.68579 4.95597 
v -0.979406 4.68579 4.95597 
v -2.54646 2.21224 -4.95597 
v -0.979406 2.21224 -4.95597 
v -2.54646 1.46882 -4.70851 
v -0.979406 1.46882 -4.70851 

vn 1 0 0 
vn 1 0 0 
vn 1 0 0 
vn 1 0 0 
vn 0 0.944882 -0.314961 
vn 0 0.944882 -0.314961 
vn 0 0.944882 -0.314961 
vn 0 0.944882 -0.314961 
vn 0 0.314961 0.944882 
vn 0 0.314961 0.944882 
vn 0 0.314961 0.944882 
vn 0 0.314961 0.944882 
vn -1 0 0 
vn -1 0 0 
vn -1 0 0 
vn -1 0 0 
vn 0 -0.944882 0.314961 
vn 0 -0.944882 0.314961 
vn 0 -0.944882 0.314961 
vn 0 -0.944882 0.314961 
vn 0 -0.314961 -0.944882 
vn 0 -0.314961 -0.944882 
vn 0 -0.314961 -0.944882 
vn 0 -0.314961 -0.944882 

vt 8.52323 0 
vt 7.25 0 
vt 8.52323 -0.0979407 
vt 7.25 -0.0979407 
vt 7.44588 0 
vt 7.25 0 
vt 7.44588 -1.27323 
vt 7.25 -1.27323 
vt 7.44588 0 
vt 7.25 0 
vt 7.44588 -0.0979407 
vt 7.25 -0.0979407 
vt 8.52323 0 
vt 7.25 0 
vt 8.52323 -0.0979407 
vt 7.25 -0.0979407 
vt 7.44588 0 
vt 7.25 0 
vt 7.44588 -1.27323 
vt 7.25 -1.27323 
vt 7.44588 0 
vt 7.25 0 
vt 7.44588 -0.0979407 
vt 7.25 -0.0979407 

usemtl Part17Mtl

f 709/709/709 710/710/710 711/711/711 
f 711/711/711 710/710/710 712/712/712 
f 713/713/713 714/714/714 715/715/715 
f 715/715/715 714/714/714 716/716/716 
f 717/717/717 718/718/718 719/719/719 
f 719/719/719 718/718/718 720/720/720 
f 721/721/721 722/722/722 723/723/723 
f 723/723/723 722/722/722 724/724/724 
f 725/725/725 726/726/726 727/727/727 
f 727/727/727 726/726/726 728/728/728 
f 729/729/729 730/730/730 731/731/731 
f 731/731/731 730/730/730 732/732/732 

g Part23

v -4.11351 2.21224 -4.95597 
v -4.11351 5.42922 4.70851 
v -4.11351 1.46882 -4.70851 
v -4.11351 4.68579 4.95597 
v -5.68056 5.42922 4.70851 
v -4.11351 5.42922 4.70851 
v -5.68056 2.21224 -4.95597 
v -4.11351 2.21224 -4.95597 
v -4.11351 5.42922 4.70851 
v -5.68056 5.42922 4.70851 
v -4.11351 4.68579 4.95597 
v -5.68056 4.68579 4.95597 
v -5.68056 5.42922 4.70851 
v -5.68056 2.21224 -4.95597 
v -5.68056 4.68579 4.95597 
v -5.68056 1.46882 -4.70851 
v -5.68056 1.46882 -4.70851 
v -4.11351 1.46882 -4.70851 
v -5.68056 4.68579 4.95597 
v -4.11351 4.68579 4.95597 
v -5.68056 2.21224 -4.95597 
v -4.11351 2.21224 -4.95597 
v -5.68056 1.46882 -4.70851 
v -4.11351 1.46882 -4.70851 

vn 1 0 0 
vn 1 0 0 
vn 1 0 0 
vn 1 0 0 
vn 0 0.944882 -0.314961 
vn 0 0.944882 -0.314961 
vn 0 0.944882 -0.314961 
vn 0 0.944882 -0.314961 
vn 0 0.314961 0.944882 
vn 0 0.314961 0.944882 
vn 0 0.314961 0.944882 
vn 0 0.314961 0.944882 
vn -1 0 0 
vn -1 0 0 
vn -1 0 0 
vn -1 0 0 
vn 0 -0.944882 0.314961 
vn 0 -0.944882 0.314961 
vn 0 -0.944882 0.314961 
vn 0 -0.944882 0.314961 
vn 0 -0.314961 -0.944882 
vn 0 -0.314961 -0.944882 
vn 0 -0.314961 -0.944882 
vn 0 -0.314961 -0.944882 

vt 5.77323 -1.25 
vt 4.5 -1.25 
vt 5.77323 -1.34794 
vt 4.5 -1.34794 
vt 4.69588 -1.25 
vt 4.5 -1.25 
vt 4.69588 -2.52323 
vt 4.5 -2.52323 
vt 4.69588 -1.25 
vt 4.5 -1.25 
vt 4.69588 -1.34794 
vt 4.5 -1.34794 
vt 5.77323 -1.25 
vt 4.5 -1.25 
vt 5.77323 -1.34794 
vt 4.5 -1.34794 
vt 4.69588 -1.25 
vt 4.5 -1.25 
vt 4.69588 -2.52323 
vt 4.5 -2.52323 
vt 4.69588 -1.25 
vt 4.5 -1.25 
vt 4.69588 -1.34794 
vt 4.5 -1.34794 

usemtl Part17Mtl

f 733/733/733 734/734/734 735/735/735 
f 735/735/735 734/734/734 736/736/736 
f 737/737/737 738/738/738 739/739/739 
f 739/739/739 738/738/738 740/740/740 
f 741/741/741 742/742/742 743/743/743 
f 743/743/743 742/742/742 744/744/744 
f 745/745/745 746/746/746 747/747/747 
f 747/747/747 746/746/746 748/748/748 
f 749/749/749 750/750/750 751/751/751 
f 751/751/751 750/750/750 752/752/752 
f 753/753/753 754/754/754 755/755/755 
f 755/755/755 754/754/754 756/756/756 

g Part24

v -5.68056 2.21224 -4.95597 
v -5.68056 5.42922 4.70851 
v -5.68056 1.46882 -4.70851 
v -5.68056 4.68579 4.95597 
v -7.63937 5.42922 4.70851 
v -5.68056 5.42922 4.70851 
v -7.63937 2.21224 -4.95597 
v -5.68056 2.21224 -4.95597 
v -5.68056 5.42922 4.70851 
v -7.63937 5.42922 4.70851 
v -5.68056 4.68579 4.95597 
v -7.63937 4.68579 4.95597 
v -7.63937 5.42922 4.70851 
v -7.63937 2.21224 -4.95597 
v -7.63937 4.68579 4.95597 
v -7.63937 1.46882 -4.70851 
v -7.63937 1.46882 -4.70851 
v -5.68056 1.46882 -4.70851 
v -7.63937 4.68579 4.95597 
v -5.68056 4.68579 4.95597 
v -7.63937 2.21224 -4.95597 
v -5.68056 2.21224 -4.95597 
v -7.63937 1.46882 -4.70851 
v -5.68056 1.46882 -4.70851 

vn 1 0 0 
vn 1 0 0 
vn 1 0 0 
vn 1 0 0 
vn 0 0.944882 -0.314961 
vn 0 0.944882 -0.314961 
vn 0 0.944882 -0.314961 
vn 0 0.944882 -0.314961 
vn 0 0.314961 0.944882 
vn 0 0.314961 0.944882 
vn 0 0.314961 0.944882 
vn 0 0.314961 0.944882 
vn -1 0 0 
vn -1 0 0 
vn -1 0 0 
vn -1 0 0 
vn 0 -0.944882 0.314961 
vn 0 -0.944882 0.314961 
vn 0 -0.944882 0.314961 
vn 0 -0.944882 0.314961 
vn 0 -0.314961 -0.944882 
vn 0 -0.314961 -0.944882 
vn 0 -0.314961 -0.944882 
vn 0 -0.314961 -0.944882 

vt 8.27323 -2 
vt 7 -2 
vt 8.27323 -2.09794 
vt 7 -2.09794 
vt 7.24485 -2 
vt 7 -2 
vt 7.24485 -3.27323 
vt 7 -3.27323 
vt 7.24485 -2 
vt 7 -2 
vt 7.24485 -2.09794 
vt 7 -2.09794 
vt 8.27323 -2 
vt 7 -2 
vt 8.27323 -2.09794 
vt 7 -2.09794 
vt 7.24485 -2 
vt 7 -2 
vt 7.24485 -3.27323 
vt 7 -3.27323 
vt 7.24485 -2 
vt 7 -2 
vt 7.24485 -2.09794 
vt 7 -2.09794 

usemtl Part16Mtl

f 757/757/757 758/758/758 759/759/759 
f 759/759/759 758/758/758 760/760/760 
f 761/761/761 762/762/762 763/763/763 
f 763/763/763 762/762/762 764/764/764 
f 765/765/765 766/766/766 767/767/767 
f 767/767/767 766/766/766 768/768/768 
f 769/769/769 770/770/770 771/771/771 
f 771/771/771 770/770/770 772/772/772 
f 773/773/773 774/774/774 775/775/775 
f 775/775/775 774/774/774 776/776/776 
f 777/777/777 778/778/778 779/779/779 
f 779/779/779 778/778/778 780/780/780 

g Part25

v 3.84124 -2.05288 -2.22348 
v 3.8548 -2.05288 -3.4863 
v 3.84124 -2.09923 -2.22348 
v 3.8548 -2.09923 -3.4863 
v 5.0597 -2.05288 -3.47336 
v 3.8548 -2.05288 -3.4863 
v 5.04614 -2.05288 -2.21053 
v 3.84124 -2.05288 -2.22348 
v 3.8548 -2.05288 -3.4863 
v 5.0597 -2.05288 -3.47336 
v 3.8548 -2.09923 -3.4863 
v 5.0597 -2.09923 -3.47336 
v 5.0597 -2.05288 -3.47336 
v 5.04614 -2.05288 -2.21053 
v 5.0597 -2.09923 -3.47336 
v 5.04614 -2.09923 -2.21053 
v 5.04614 -2.09923 -2.21053 
v 3.84124 -2.09923 -2.22348 
v 5.0597 -2.09923 -3.47336 
v 3.8548 -2.09923 -3.4863 
v 5.04614 -2.05288 -2.21053 
v 3.84124 -2.05288 -2.22348 
v 5.04614 -2.09923 -2.21053 
v 3.84124 -2.09923 -2.22348 

vn -1 0 -0.00787402 
vn -1 0 -0.00787402 
vn -1 0 -0.00787402 
vn -1 0 -0.00787402 
vn 0 1 0 
vn 0 1 0 
vn 0 1 0 
vn 0 1 0 
vn 0.00787402 0 -1 
vn 0.00787402 0 -1 
vn 0.00787402 0 -1 
vn 0.00787402 0 -1 
vn 1 0 0.00787402 
vn 1 0 0.00787402 
vn 1 0 0.00787402 
vn 1 0 0.00787402 
vn 0 -1 0 
vn 0 -1 0 
vn 0 -1 0 
vn 0 -1 0 
vn -0.00787402 0 1 
vn -0.00787402 0 1 
vn -0.00787402 0 1 
vn -0.00787402 0 1 

vt 7.15786 -1.25 
vt 7 -1.25 
vt 7.15786 -1.25579 
vt 7 -1.25579 
vt 7.15062 -1.25 
vt 7 -1.25 
vt 7.15062 -1.40786 
vt 7 -1.40786 
vt 7.15062 -1.25 
vt 7 -1.25 
vt 7.15062 -1.25579 
vt 7 -1.25579 
vt 7.15786 -1.25 
vt 7 -1.25 
vt 7.15786 -1.25579 
vt 7 -1.25579 
vt 7.15062 -1.25 
vt 7 -1.25 
vt 7.15062 -1.40786 
vt 7 -1.40786 
vt 7.15062 -1.25 
vt 7 -1.25 
vt 7.15062 -1.25579 
vt 7 -1.25579 

usemtl Part25Mtl

f 781/781/781 782/782/782 783/783/783 
f 783/783/783 782/782/782 784/784/784 
f 785/785/785 786/786/786 787/787/787 
f 787/787/787 786/786/786 788/788/788 
f 789/789/789 790/790/790 791/791/791 
f 791/791/791 790/790/790 792/792/792 
f 793/793/793 794/794/794 795/795/795 
f 795/795/795 794/794/794 796/796/796 
f 797/797/797 798/798/798 799/799/799 
f 799/799/799 798/798/798 800/800/800 
f 801/801/801 802/802/802 803/803/803 
f 803/803/803 802/802/802 804/804/804 

g Part26

v 5.04613 -0.929023 -2.21054 
v 5.0597 -0.929023 -3.47337 
v 5.04613 -2.05289 -2.21054 
v 5.0597 -2.05289 -3.47337 
v 5.10604 -0.929023 -3.47287 
v 5.0597 -0.929023 -3.47337 
v 5.09248 -0.929023 -2.21004 
v 5.04613 -0.929023 -2.21054 
v 5.0597 -0.929023 -3.47337 
v 5.10604 -0.929023 -3.47287 
v 5.0597 -2.05289 -3.47337 
v 5.10604 -2.05289 -3.47287 
v 5.10604 -0.929023 -3.47287 
v 5.09248 -0.929023 -2.21004 
v 5.10604 -2.05289 -3.47287 
v 5.09248 -2.05289 -2.21004 
v 5.09248 -2.05289 -2.21004 
v 5.04613 -2.05289 -2.21054 
v 5.10604 -2.05289 -3.47287 
v 5.0597 -2.05289 -3.47337 
v 5.09248 -0.929023 -2.21004 
v 5.04613 -0.929023 -2.21054 
v 5.09248 -2.05289 -2.21004 
v 5.04613 -2.05289 -2.21054 

vn -1 0 -0.00787402 
vn -1 0 -0.00787402 
vn -1 0 -0.00787402 
vn -1 0 -0.00787402 
vn 0 1 0 
vn 0 1 0 
vn 0 1 0 
vn 0 1 0 
vn 0.00787402 0 -1 
vn 0.00787402 0 -1 
vn 0.00787402 0 -1 
vn 0.00787402 0 -1 
vn 1 0 0.00787402 
vn 1 0 0.00787402 
vn 1 0 0.00787402 
vn 1 0 0.00787402 
vn 0 -1 0 
vn 0 -1 0 
vn 0 -1 0 
vn 0 -1 0 
vn -0.00787402 0 1 
vn -0.00787402 0 1 
vn -0.00787402 0 1 
vn -0.00787402 0 1 

vt 4.40786 0.75 
vt 4.25 0.75 
vt 4.40786 0.609517 
vt 4.25 0.609517 
vt 4.25579 0.75 
vt 4.25 0.75 
vt 4.25579 0.592138 
vt 4.25 0.592138 
vt 4.25579 0.75 
vt 4.25 0.75 
vt 4.25579 0.609517 
vt 4.25 0.609517 
vt 4.40786 0.75 
vt 4.25 0.75 
vt 4.40786 0.609517 
vt 4.25 0.609517 
vt 4.25579 0.75 
vt 4.25 0.75 
vt 4.25579 0.592138 
vt 4.25 0.592138 
vt 4.25579 0.75 
vt 4.25 0.75 
vt 4.25579 0.609517 
vt 4.25 0.609517 

usemtl Part25Mtl

f 805/805/805 806/806/806 807/807/807 
f 807/807/807 806/806/806 808/808/808 
f 809/809/809 810/810/810 811/811/811 
f 811/811/811 810/810/810 812/812/812 
f 813/813/813 814/814/814 815/815/815 
f 815/815/815 814/814/814 816/816/816 
f 817/817/817 818/818/818 819/819/819 
f 819/819/819 818/818/818 820/820/820 
f 821/821/821 822/822/822 823/823/823 
f 823/823/823 822/822/822 824/824/824 
f 825/825/825 826/826/826 827/827/827 
f 827/827/827 826/826/826 828/828/828 

g Part27

v 3.85481 -0.929023 -3.48632 
v 3.85518 -0.929023 -3.52107 
v 3.85481 -2.05289 -3.48632 
v 3.85518 -2.05289 -3.52107 
v 5.06008 -0.929023 -3.50813 
v 3.85518 -0.929023 -3.52107 
v 5.05971 -0.929023 -3.47337 
v 3.85481 -0.929023 -3.48632 
v 3.85518 -0.929023 -3.52107 
v 5.06008 -0.929023 -3.50813 
v 3.85518 -2.05289 -3.52107 
v 5.06008 -2.05289 -3.50813 
v 5.06008 -0.929023 -3.50813 
v 5.05971 -0.929023 -3.47337 
v 5.06008 -2.05289 -3.50813 
v 5.05971 -2.05289 -3.47337 
v 5.05971 -2.05289 -3.47337 
v 3.85481 -2.05289 -3.48632 
v 5.06008 -2.05289 -3.50813 
v 3.85518 -2.05289 -3.52107 
v 5.05971 -0.929023 -3.47337 
v 3.85481 -0.929023 -3.48632 
v 5.05971 -2.05289 -3.47337 
v 3.85481 -2.05289 -3.48632 

vn -1 0 -0.00787402 
vn -1 0 -0.00787402 
vn -1 0 -0.00787402 
vn -1 0 -0.00787402 
vn 0 1 0 
vn 0 1 0 
vn 0 1 0 
vn 0 1 0 
vn 0.00787402 0 -1 
vn 0.00787402 0 -1 
vn 0.00787402 0 -1 
vn 0.00787402 0 -1 
vn 1 0 0.00787402 
vn 1 0 0.00787402 
vn 1 0 0.00787402 
vn 1 0 0.00787402 
vn 0 -1 0 
vn 0 -1 0 
vn 0 -1 0 
vn 0 -1 0 
vn -0.00787402 0 1 
vn -0.00787402 0 1 
vn -0.00787402 0 1 
vn -0.00787402 0 1 

vt 2.25434 -0.5 
vt 2.25 -0.5 
vt 2.25434 -0.640483 
vt 2.25 -0.640483 
vt 2.40062 -0.5 
vt 2.25 -0.5 
vt 2.40062 -0.504345 
vt 2.25 -0.504345 
vt 2.40062 -0.5 
vt 2.25 -0.5 
vt 2.40062 -0.640483 
vt 2.25 -0.640483 
vt 2.25434 -0.5 
vt 2.25 -0.5 
vt 2.25434 -0.640483 
vt 2.25 -0.640483 
vt 2.40062 -0.5 
vt 2.25 -0.5 
vt 2.40062 -0.504345 
vt 2.25 -0.504345 
vt 2.40062 -0.5 
vt 2.25 -0.5 
vt 2.40062 -0.640483 
vt 2.25 -0.640483 

usemtl Part25Mtl

f 829/829/829 830/830/830 831/831/831 
f 831/831/831 830/830/830 832/832/832 
f 833/833/833 834/834/834 835/835/835 
f 835/835/835 834/834/834 836/836/836 
f 837/837/837 838/838/838 839/839/839 
f 839/839/839 838/838/838 840/840/840 
f 841/841/841 842/842/842 843/843/843 
f 843/843/843 842/842/842 844/844/844 
f 845/845/845 846/846/846 847/847/847 
f 847/847/847 846/846/846 848/848/848 
f 849/849/849 850/850/850 851/851/851 
f 851/851/851 850/850/850 852/852/852 

g Part28

v 3.84086 -0.929023 -2.18874 
v 3.84123 -0.929023 -2.2235 
v 3.84086 -2.05289 -2.18874 
v 3.84123 -2.05289 -2.2235 
v 5.04613 -0.929023 -2.21055 
v 3.84123 -0.929023 -2.2235 
v 5.04576 -0.929023 -2.1758 
v 3.84086 -0.929023 -2.18874 
v 3.84123 -0.929023 -2.2235 
v 5.04613 -0.929023 -2.21055 
v 3.84123 -2.05289 -2.2235 
v 5.04613 -2.05289 -2.21055 
v 5.04613 -0.929023 -2.21055 
v 5.04576 -0.929023 -2.1758 
v 5.04613 -2.05289 -2.21055 
v 5.04576 -2.05289 -2.1758 
v 5.04576 -2.05289 -2.1758 
v 3.84086 -2.05289 -2.18874 
v 5.04613 -2.05289 -2.21055 
v 3.84123 -2.05289 -2.2235 
v 5.04576 -0.929023 -2.1758 
v 3.84086 -0.929023 -2.18874 
v 5.04576 -2.05289 -2.1758 
v 3.84086 -2.05289 -2.18874 

vn -1 0 -0.00787402 
vn -1 0 -0.00787402 
vn -1 0 -0.00787402 
vn -1 0 -0.00787402 
vn 0 1 0 
vn 0 1 0 
vn 0 1 0 
vn 0 1 0 
vn 0.00787402 0 -1 
vn 0.00787402 0 -1 
vn 0.00787402 0 -1 
vn 0.00787402 0 -1 
vn 1 0 0.00787402 
vn 1 0 0.00787402 
vn 1 0 0.00787402 
vn 1 0 0.00787402 
vn 0 -1 0 
vn 0 -1 0 
vn 0 -1 0 
vn 0 -1 0 
vn -0.00787402 0 1 
vn -0.00787402 0 1 
vn -0.00787402 0 1 
vn -0.00787402 0 1 

vt 4.00434 -3.25 
vt 4 -3.25 
vt 4.00434 -3.39048 
vt 4 -3.39048 
vt 4.15062 -3.25 
vt 4 -3.25 
vt 4.15062 -3.25434 
vt 4 -3.25434 
vt 4.15062 -3.25 
vt 4 -3.25 
vt 4.15062 -3.39048 
vt 4 -3.39048 
vt 4.00434 -3.25 
vt 4 -3.25 
vt 4.00434 -3.39048 
vt 4 -3.39048 
vt 4.15062 -3.25 
vt 4 -3.25 
vt 4.15062 -3.25434 
vt 4 -3.25434 
vt 4.15062 -3.25 
vt 4 -3.25 
vt 4.15062 -3.39048 
vt 4 -3.39048 

usemtl Part25Mtl

f 853/853/853 854/854/854 855/855/855 
f 855/855/855 854/854/854 856/856/856 
f 857/857/857 858/858/858 859/859/859 
f 859/859/859 858/858/858 860/860/860 
f 861/861/861 862/862/862 863/863/863 
f 863/863/863 862/862/862 864/864/864 
f 865/865/865 866/866/866 867/867/867 
f 867/867/867 866/866/866 868/868/868 
f 869/869/869 870/870/870 871/871/871 
f 871/871/871 870/870/870 872/872/872 
f 873/873/873 874/874/874 875/875/875 
f 875/875/875 874/874/874 876/876/876 

g Part29

v 3.7949 -0.929023 -2.22397 
v 3.80846 -0.929023 -3.48679 
v 3.7949 -2.05289 -2.22397 
v 3.80846 -2.05289 -3.48679 
v 3.85481 -0.929023 -3.4863 
v 3.80846 -0.929023 -3.48679 
v 3.84124 -0.929023 -2.22347 
v 3.7949 -0.929023 -2.22397 
v 3.80846 -0.929023 -3.48679 
v 3.85481 -0.929023 -3.4863 
v 3.80846 -2.05289 -3.48679 
v 3.85481 -2.05289 -3.4863 
v 3.85481 -0.929023 -3.4863 
v 3.84124 -0.929023 -2.22347 
v 3.85481 -2.05289 -3.4863 
v 3.84124 -2.05289 -2.22347 
v 3.84124 -2.05289 -2.22347 
v 3.7949 -2.05289 -2.22397 
v 3.85481 -2.05289 -3.4863 
v 3.80846 -2.05289 -3.48679 
v 3.84124 -0.929023 -2.22347 
v 3.7949 -0.929023 -2.22397 
v 3.84124 -2.05289 -2.22347 
v 3.7949 -2.05289 -2.22397 

vn -1 0 -0.00787402 
vn -1 0 -0.00787402 
vn -1 0 -0.00787402 
vn -1 0 -0.00787402 
vn 0 1 0 
vn 0 1 0 
vn 0 1 0 
vn 0 1 0 
vn 0.00787402 0 -1 
vn 0.00787402 0 -1 
vn 0.00787402 0 -1 
vn 0.00787402 0 -1 
vn 1 0 0.00787402 
vn 1 0 0.00787402 
vn 1 0 0.00787402 
vn 1 0 0.00787402 
vn 0 -1 0 
vn 0 -1 0 
vn 0 -1 0 
vn 0 -1 0 
vn -0.00787402 0 1 
vn -0.00787402 0 1 
vn -0.00787402 0 1 
vn -0.00787402 0 1 

vt 6.15786 -2.5 
vt 6 -2.5 
vt 6.15786 -2.64048 
vt 6 -2.64048 
vt 6.00579 -2.5 
vt 6 -2.5 
vt 6.00579 -2.65786 
vt 6 -2.65786 
vt 6.00579 -2.5 
vt 6 -2.5 
vt 6.00579 -2.64048 
vt 6 -2.64048 
vt 6.15786 -2.5 
vt 6 -2.5 
vt 6.15786 -2.64048 
vt 6 -2.64048 
vt 6.00579 -2.5 
vt 6 -2.5 
vt 6.00579 -2.65786 
vt 6 -2.65786 
vt 6.00579 -2.5 
vt 6 -2.5 
vt 6.00579 -2.64048 
vt 6 -2.64048 

usemtl Part25Mtl

f 877/877/877 878/878/878 879/879/879 
f 879/879/879 878/878/878 880/880/880 
f 881/881/881 882/882/882 883/883/883 
f 883/883/883 882/882/882 884/884/884 
f 885/885/885 886/886/886 887/887/887 
f 887/887/887 886/886/886 888/888/888 
f 889/889/889 890/890/890 891/891/891 
f 891/891/891 890/890/890 892/892/892 
f 893/893/893 894/894/894 895/895/895 
f 895/895/895 894/894/894 896/896/896 
f 897/897/897 898/898/898 899/899/899 
f 899/899/899 898/898/898 900/900/900 

g Part30

v 3.84099 -0.732056 -2.20031 
v 3.85505 -0.732056 -3.50948 
v 3.84099 -0.894264 -2.20031 
v 3.85505 -0.894264 -3.50948 
v 5.11788 -0.732056 -3.49591 
v 3.85505 -0.732056 -3.50948 
v 5.10381 -0.732056 -2.18675 
v 3.84099 -0.732056 -2.20031 
v 3.85505 -0.732056 -3.50948 
v 5.11788 -0.732056 -3.49591 
v 3.85505 -0.894264 -3.50948 
v 5.11788 -0.894264 -3.49591 
v 5.11788 -0.732056 -3.49591 
v 5.10381 -0.732056 -2.18675 
v 5.11788 -0.894264 -3.49591 
v 5.10381 -0.894264 -2.18675 
v 5.10381 -0.894264 -2.18675 
v 3.84099 -0.894264 -2.20031 
v 5.11788 -0.894264 -3.49591 
v 3.85505 -0.894264 -3.50948 
v 5.10381 -0.732056 -2.18675 
v 3.84099 -0.732056 -2.20031 
v 5.10381 -0.894264 -2.18675 
v 3.84099 -0.894264 -2.20031 

vn -1 0 -0.00787402 
vn -1 0 -0.00787402 
vn -1 0 -0.00787402 
vn -1 0 -0.00787402 
vn 0 1 0 
vn 0 1 0 
vn 0 1 0 
vn 0 1 0 
vn 0.00787402 0 -1 
vn 0.00787402 0 -1 
vn 0.00787402 0 -1 
vn 0.00787402 0 -1 
vn 1 0 0.00787402 
vn 1 0 0.00787402 
vn 1 0 0.00787402 
vn 1 0 0.00787402 
vn 0 -1 0 
vn 0 -1 0 
vn 0 -1 0 
vn 0 -1 0 
vn -0.00787402 0 1 
vn -0.00787402 0 1 
vn -0.00787402 0 1 
vn -0.00787402 0 1 

vt 0.913656 -3 
vt 0.75 -3 
vt 0.913656 -3.02028 
vt 0.75 -3.02028 
vt 0.907862 -3 
vt 0.75 -3 
vt 0.907862 -3.16366 
vt 0.75 -3.16366 
vt 0.907862 -3 
vt 0.75 -3 
vt 0.907862 -3.02028 
vt 0.75 -3.02028 
vt 0.913656 -3 
vt 0.75 -3 
vt 0.913656 -3.02028 
vt 0.75 -3.02028 
vt 0.907862 -3 
vt 0.75 -3 
vt 0.907862 -3.16366 
vt 0.75 -3.16366 
vt 0.907862 -3 
vt 0.75 -3 
vt 0.907862 -3.02028 
vt 0.75 -3.02028 

usemtl Part25Mtl

f 901/901/901 902/902/902 903/903/903 
f 903/903/903 902/902/902 904/904/904 
f 905/905/905 906/906/906 907/907/907 
f 907/907/907 906/906/906 908/908/908 
f 909/909/909 910/910/910 911/911/911 
f 911/911/911 910/910/910 912/912/912 
f 913/913/913 914/914/914 915/915/915 
f 915/915/915 914/914/914 916/916/916 
f 917/917/917 918/918/918 919/919/919 
f 919/919/919 918/918/918 920/920/920 
f 921/921/921 922/922/922 923/923/923 
f 923/923/923 922/922/922 924/924/924 

g Part31

v 3.74781 -0.766812 -2.15497 
v 3.76299 -0.766812 -3.56841 
v 3.74781 -0.929019 -2.15497 
v 3.76299 -0.929019 -3.56841 
v 5.17643 -0.766812 -3.55322 
v 3.76299 -0.766812 -3.56841 
v 5.16125 -0.766812 -2.13978 
v 3.74781 -0.766812 -2.15497 
v 3.76299 -0.766812 -3.56841 
v 5.17643 -0.766812 -3.55322 
v 3.76299 -0.929019 -3.56841 
v 5.17643 -0.929019 -3.55322 
v 5.17643 -0.766812 -3.55322 
v 5.16125 -0.766812 -2.13978 
v 5.17643 -0.929019 -3.55322 
v 5.16125 -0.929019 -2.13978 
v 5.16125 -0.929019 -2.13978 
v 3.74781 -0.929019 -2.15497 
v 5.17643 -0.929019 -3.55322 
v 3.76299 -0.929019 -3.56841 
v 5.16125 -0.766812 -2.13978 
v 3.74781 -0.766812 -2.15497 
v 5.16125 -0.929019 -2.13978 
v 3.74781 -0.929019 -2.15497 

vn -1 0 -0.00787402 
vn -1 0 -0.00787402 
vn -1 0 -0.00787402 
vn -1 0 -0.00787402 
vn 0 1 0 
vn 0 1 0 
vn 0 1 0 
vn 0 1 0 
vn 0.00787402 0 -1 
vn 0.00787402 0 -1 
vn 0.00787402 0 -1 
vn 0.00787402 0 -1 
vn 1 0 0.00787402 
vn 1 0 0.00787402 
vn 1 0 0.00787402 
vn 1 0 0.00787402 
vn 0 -1 0 
vn 0 -1 0 
vn 0 -1 0 
vn 0 -1 0 
vn -0.00787402 0 1 
vn -0.00787402 0 1 
vn -0.00787402 0 1 
vn -0.00787402 0 1 

vt 0.92669 -3 
vt 0.75 -3 
vt 0.92669 -3.02028 
vt 0.75 -3.02028 
vt 0.92669 -3 
vt 0.75 -3 
vt 0.92669 -3.17669 
vt 0.75 -3.17669 
vt 0.92669 -3 
vt 0.75 -3 
vt 0.92669 -3.02028 
vt 0.75 -3.02028 
vt 0.92669 -3 
vt 0.75 -3 
vt 0.92669 -3.02028 
vt 0.75 -3.02028 
vt 0.92669 -3 
vt 0.75 -3 
vt 0.92669 -3.17669 
vt 0.75 -3.17669 
vt 0.92669 -3 
vt 0.75 -3 
vt 0.92669 -3.02028 
vt 0.75 -3.02028 

usemtl Part25Mtl

f 925/925/925 926/926/926 927/927/927 
f 927/927/927 926/926/926 928/928/928 
f 929/929/929 930/930/930 931/931/931 
f 931/931/931 930/930/930 932/932/932 
f 933/933/933 934/934/934 935/935/935 
f 935/935/935 934/934/934 936/936/936 
f 937/937/937 938/938/938 939/939/939 
f 939/939/939 938/938/938 940/940/940 
f 941/941/941 942/942/942 943/943/943 
f 943/943/943 942/942/942 944/944/944 
f 945/945/945 946/946/946 947/947/947 
f 947/947/947 946/946/946 948/948/948 

g Part32

v 3.94878 -0.336292 -3.40724 
v 4.95612 -0.336292 -3.39642 
v 3.94878 -0.480205 -3.40724 
v 4.95612 -0.480205 -3.39642 
v 4.94529 -0.336292 -2.38908 
v 4.95612 -0.336292 -3.39642 
v 3.93796 -0.336292 -2.39991 
v 3.94878 -0.336292 -3.40724 
v 4.95612 -0.336292 -3.39642 
v 4.94529 -0.336292 -2.38908 
v 4.95612 -0.480205 -3.39642 
v 4.94529 -0.480205 -2.38908 
v 4.94529 -0.336292 -2.38908 
v 3.93796 -0.336292 -2.39991 
v 4.94529 -0.480205 -2.38908 
v 3.93796 -0.480205 -2.39991 
v 3.93796 -0.480205 -2.39991 
v 3.94878 -0.480205 -3.40724 
v 4.94529 -0.480205 -2.38908 
v 4.95612 -0.480205 -3.39642 
v 3.93796 -0.336292 -2.39991 
v 3.94878 -0.336292 -3.40724 
v 3.93796 -0.480205 -2.39991 
v 3.94878 -0.480205 -3.40724 

vn 0.00787402 0 -1 
vn 0.00787402 0 -1 
vn 0.00787402 0 -1 
vn 0.00787402 0 -1 
vn 0 1 0 
vn 0 1 0 
vn 0 1 0 
vn 0 1 0 
vn 1 0 0.00787402 
vn 1 0 0.00787402 
vn 1 0 0.00787402 
vn 1 0 0.00787402 
vn -0.00787402 0 1 
vn -0.00787402 0 1 
vn -0.00787402 0 1 
vn -0.00787402 0 1 
vn 0 -1 0 
vn 0 -1 0 
vn 0 -1 0 
vn 0 -1 0 
vn -1 0 -0.00787402 
vn -1 0 -0.00787402 
vn -1 0 -0.00787402 
vn -1 0 -0.00787402 

vt 5.62592 0.5 
vt 5.5 0.5 
vt 5.62592 0.482011 
vt 5.5 0.482011 
vt 5.62592 0.5 
vt 5.5 0.5 
vt 5.62592 0.374076 
vt 5.5 0.374076 
vt 5.62592 0.5 
vt 5.5 0.5 
vt 5.62592 0.482011 
vt 5.5 0.482011 
vt 5.62592 0.5 
vt 5.5 0.5 
vt 5.62592 0.482011 
vt 5.5 0.482011 
vt 5.62592 0.5 
vt 5.5 0.5 
vt 5.62592 0.374076 
vt 5.5 0.374076 
vt 5.62592 0.5 
vt 5.5 0.5 
vt 5.62592 0.482011 
vt 5.5 0.482011 

usemtl Part2Mtl

f 949/949/949 950/950/950 951/951/951 
f 951/951/951 950/950/950 952/952/952 
f 953/953/953 954/954/954 955/955/955 
f 955/955/955 954/954/954 956/956/956 
f 957/957/957 958/958/958 959/959/959 
f 959/959/959 958/958/958 960/960/960 
f 961/961/961 962/962/962 963/963/963 
f 963/963/963 962/962/962 964/964/964 
f 965/965/965 966/966/966 967/967/967 
f 967/967/967 966/966/966 968/968/968 
f 969/969/969 970/970/970 971/971/971 
f 971/971/971 970/970/970 972/972/972 

g Part33

v 3.80642 -0.480209 -3.55269 
v 5.10157 -0.480209 -3.53878 
v 3.80642 -0.624123 -3.55269 
v 5.10157 -0.624123 -3.53878 
v 5.08765 -0.480209 -2.24363 
v 5.10157 -0.480209 -3.53878 
v 3.79251 -0.480209 -2.25755 
v 3.80642 -0.480209 -3.55269 
v 5.10157 -0.480209 -3.53878 
v 5.08765 -0.480209 -2.24363 
v 5.10157 -0.624123 -3.53878 
v 5.08765 -0.624123 -2.24363 
v 5.08765 -0.480209 -2.24363 
v 3.79251 -0.480209 -2.25755 
v 5.08765 -0.624123 -2.24363 
v 3.79251 -0.624123 -2.25755 
v 3.79251 -0.624123 -2.25755 
v 3.80642 -0.624123 -3.55269 
v 5.08765 -0.624123 -2.24363 
v 5.10157 -0.624123 -3.53878 
v 3.79251 -0.480209 -2.25755 
v 3.80642 -0.480209 -3.55269 
v 3.79251 -0.624123 -2.25755 
v 3.80642 -0.624123 -3.55269 

vn 0.00787402 0 -1 
vn 0.00787402 0 -1 
vn 0.00787402 0 -1 
vn 0.00787402 0 -1 
vn 0 1 0 
vn 0 1 0 
vn 0 1 0 
vn 0 1 0 
vn 1 0 0.00787402 
vn 1 0 0.00787402 
vn 1 0 0.00787402 
vn 1 0 0.00787402 
vn -0.00787402 0 1 
vn -0.00787402 0 1 
vn -0.00787402 0 1 
vn -0.00787402 0 1 
vn 0 -1 0 
vn 0 -1 0 
vn 0 -1 0 
vn 0 -1 0 
vn -1 0 -0.00787402 
vn -1 0 -0.00787402 
vn -1 0 -0.00787402 
vn -1 0 -0.00787402 

vt 7.6619 -5.75 
vt 7.5 -5.75 
vt 7.6619 -5.76799 
vt 7.5 -5.76799 
vt 7.6619 -5.75 
vt 7.5 -5.75 
vt 7.6619 -5.9119 
vt 7.5 -5.9119 
vt 7.6619 -5.75 
vt 7.5 -5.75 
vt 7.6619 -5.76799 
vt 7.5 -5.76799 
vt 7.6619 -5.75 
vt 7.5 -5.75 
vt 7.6619 -5.76799 
vt 7.5 -5.76799 
vt 7.6619 -5.75 
vt 7.5 -5.75 
vt 7.6619 -5.9119 
vt 7.5 -5.9119 
vt 7.6619 -5.75 
vt 7.5 -5.75 
vt 7.6619 -5.76799 
vt 7.5 -5.76799 

usemtl Part2Mtl

f 973/973/973 974/974/974 975/975/975 
f 975/975/975 974/974/974 976/976/976 
f 977/977/977 978/978/978 979/979/979 
f 979/979/979 978/978/978 980/980/980 
f 981/981/981 982/982/982 983/983/983 
f 983/983/983 982/982/982 984/984/984 
f 985/985/985 986/986/986 987/987/987 
f 987/987/987 986/986/986 988/988/988 
f 989/989/989 990/990/990 991/991/991 
f 991/991/991 990/990/990 992/992/992 
f 993/993/993 994/994/994 995/995/995 
f 995/995/995 994/994/994 996/996/996 

g Part34

v 3.80642 -0.624123 -3.55269 
v 5.10157 -0.624123 -3.53878 
v 3.80642 -0.768036 -3.55269 
v 5.10157 -0.768036 -3.53878 
v 5.08765 -0.624123 -2.24363 
v 5.10157 -0.624123 -3.53878 
v 3.79251 -0.624123 -2.25755 
v 3.80642 -0.624123 -3.55269 
v 5.10157 -0.624123 -3.53878 
v 5.08765 -0.624123 -2.24363 
v 5.10157 -0.768036 -3.53878 
v 5.08765 -0.768036 -2.24363 
v 5.08765 -0.624123 -2.24363 
v 3.79251 -0.624123 -2.25755 
v 5.08765 -0.768036 -2.24363 
v 3.79251 -0.768036 -2.25755 
v 3.79251 -0.768036 -2.25755 
v 3.80642 -0.768036 -3.55269 
v 5.08765 -0.768036 -2.24363 
v 5.10157 -0.768036 -3.53878 
v 3.79251 -0.624123 -2.25755 
v 3.80642 -0.624123 -3.55269 
v 3.79251 -0.768036 -2.25755 
v 3.80642 -0.768036 -3.55269 

vn 0.00787402 0 -1 
vn 0.00787402 0 -1 
vn 0.00787402 0 -1 
vn 0.00787402 0 -1 
vn 0 1 0 
vn 0 1 0 
vn 0 1 0 
vn 0 1 0 
vn 1 0 0.00787402 
vn 1 0 0.00787402 
vn 1 0 0.00787402 
vn 1 0 0.00787402 
vn -0.00787402 0 1 
vn -0.00787402 0 1 
vn -0.00787402 0 1 
vn -0.00787402 0 1 
vn 0 -1 0 
vn 0 -1 0 
vn 0 -1 0 
vn 0 -1 0 
vn -1 0 -0.00787402 
vn -1 0 -0.00787402 
vn -1 0 -0.00787402 
vn -1 0 -0.00787402 

vt 5.6619 -1.75 
vt 5.5 -1.75 
vt 5.6619 -1.76799 
vt 5.5 -1.76799 
vt 5.6619 -1.75 
vt 5.5 -1.75 
vt 5.6619 -1.9119 
vt 5.5 -1.9119 
vt 5.6619 -1.75 
vt 5.5 -1.75 
vt 5.6619 -1.76799 
vt 5.5 -1.76799 
vt 5.6619 -1.75 
vt 5.5 -1.75 
vt 5.6619 -1.76799 
vt 5.5 -1.76799 
vt 5.6619 -1.75 
vt 5.5 -1.75 
vt 5.6619 -1.9119 
vt 5.5 -1.9119 
vt 5.6619 -1.75 
vt 5.5 -1.75 
vt 5.6619 -1.76799 
vt 5.5 -1.76799 

usemtl Part2Mtl

f 997/997/997 998/998/998 999/999/999 
f 999/999/999 998/998/998 1000/1000/1000 
f 1001/1001/1001 1002/1002/1002 1003/1003/1003 
f 1003/1003/1003 1002/1002/1002 1004/1004/1004 
f 1005/1005/1005 1006/1006/1006 1007/1007/1007 
f 1007/1007/1007 1006/1006/1006 1008/1008/1008 
f 1009/1009/1009 1010/1010/1010 1011/1011/1011 
f 1011/1011/1011 1010/1010/1010 1012/1012/1012 
f 1013/1013/1013 1014/1014/1014 1015/1015/1015 
f 1015/1015/1015 1014/1014/1014 1016/1016/1016 
f 1017/1017/1017 1018/1018/1018 1019/1019/1019 
f 1019/1019/1019 1018/1018/1018 1020/1020/1020 

