# This file is brought to you by Roblox Corporation
# Generated by Roblox Studio

mtllib wave.mtl

g Tsunamiwave1

v 0.914815 1.296 -21.1766 
v 0.914815 -1.296 -21.1766 
v -5.85318 -1.296 -21.1766 
v -1.96518 1.296 -21.1766 
v -5.85318 -0.863996 -21.1766 
v -5.85318 1.008 -21.1766 
v -5.85318 -1.296 -21.1766 
v 0.914815 1.296 -21.1766 
v -5.85318 1.296 -21.1766 
v 0.914815 -1.296 21.1766 
v 0.914815 1.296 21.1766 
v -1.96518 1.296 21.1766 
v -5.85318 1.296 21.1766 
v -5.85318 -0.863996 -21.1766 
v -5.85318 -0.864002 14.1178 
v -5.85318 1.00801 -16.4709 
v -5.85318 1.008 -21.1766 
v -5.85318 -0.864002 14.1178 
v -5.85318 -0.863996 21.1766 
v -5.85318 1.008 21.1766 
v -5.85318 1.00801 -16.4709 
v -5.85317 1.008 21.1766 
v -5.85318 -0.863996 21.1766 
v -5.85318 -1.296 21.1766 
v 4.51481 -1.296 -21.1766 
v 4.51481 -2.44799 -21.1766 
v -5.85318 -2.44799 -21.1766 
v 0.914815 -1.296 -21.1766 
v -5.85318 -1.296 -21.1766 
v 6.26823 -2.448 -21.1766 
v 6.26823 -3.6 -21.1766 
v -7.14917 -3.6 -21.1766 
v 4.51481 -2.44799 -21.1766 
v 6.26823 -2.448 -21.1766 
v -7.14917 -3.6 -21.1766 
v -5.85318 -2.44799 -21.1766 
v -7.14917 -2.448 -21.1766 
v 6.26823 -3.6 21.1766 
v 6.26823 -2.448 21.1766 
v 4.51481 -2.448 21.1766 
v -5.85318 -2.44799 21.1766 
v -7.14917 -2.448 21.1766 
v 6.26823 -3.6 -21.1766 
v 6.26823 -3.6 21.1766 
v -7.14917 -3.6 21.1766 
v -7.14917 -3.6 -21.1766 
v 6.26823 -3.59999 -21.1766 
v -7.14917 -3.6 21.1766 
v -7.14917 -3.6 21.1766 
v -1.96518 2.592 21.1766 
v -1.96518 2.592 -21.1766 
v -2.19324 2.592 18.6923 
v -2.19324 2.592 -19.144 
v -2.19324 2.592 -21.1766 
v -1.96518 2.54119 -21.1766 
v -2.05655 2.56154 -21.1766 
v -1.96518 2.592 -21.1766 
v -2.19324 2.592 -21.1766 
v -2.19324 2.592 21.1766 
v -1.96518 2.592 21.1766 
v -2.19324 2.592 21.1766 
v -1.96518 2.54118 21.1766 
v -1.96518 2.592 21.1766 
v -5.70073 2.54119 21.1766 
v -5.85318 2.54119 21.1766 
v -5.85318 1.296 21.1766 
v -1.96518 1.296 21.1766 
v -2.11763 2.54119 -21.1766 
v -5.85318 1.296 -21.1766 
v -5.85318 2.54119 -21.1766 
v -2.11763 2.54119 -21.1766 
v -5.85318 1.296 -21.1766 
v -2.05655 2.56154 -21.1766 
v -2.11763 2.54119 -21.1766 
v -2.19324 2.592 -21.1766 
v -5.85318 2.54119 -21.1766 
v -5.85318 2.592 -21.1766 
v -1.96518 2.54119 21.1766 
v -1.96518 1.296 21.1766 
v -2.19324 2.592 21.1766 
v -5.85318 2.592 21.1766 
v -6.67305 2.54119 21.1766 
v -5.85318 1.296 21.1766 
v -5.85318 1.008 21.1766 
v -6.67305 2.54119 21.1766 
v -6.67305 2.54119 -19.8178 
v -5.85318 1.008 21.1766 
v -6.67305 2.54119 -20.7833 
v -5.85318 1.008 -21.1766 
v -6.67305 2.54118 -19.8178 
v -6.67305 2.54119 -21.1766 
v -5.85318 1.00801 -16.4709 
v -5.85317 1.00801 21.1766 
v -6.67305 2.54119 -21.1766 
v -5.85318 1.296 -21.1766 
v -5.85318 1.008 -21.1766 
v -6.67305 2.54119 21.1766 
v -5.85318 2.592 21.1766 
v -6.70023 2.592 21.1766 
v -6.70023 2.592 -21.1766 
v -5.85318 2.592 -21.1766 
v -1.96518 2.592 -21.1766 
v 0.914817 1.296 -21.1766 
v -1.96518 1.296 -21.1766 
v -1.96518 2.592 -21.1766 
v -1.96518 1.296 -21.1766 
v -1.96518 2.54119 -21.1766 
v 0.914817 1.296 -21.1766 
v -1.96518 2.592 -21.1766 
v -1.96518 2.592 21.1766 
v 0.914817 1.296 21.1766 
v 0.914817 1.296 21.1766 
v -1.96518 2.592 21.1766 
v 4.51481 -1.296 -21.1766 
v 6.26823 -2.44799 -21.1766 
v 4.51481 -2.44799 -21.1766 
v 6.26823 -2.44799 -21.1766 
v 4.51481 -1.296 -21.1766 
v 4.51481 -1.29599 21.1766 
v 6.26823 -2.44799 21.1766 
v 4.51481 -1.296 21.1766 
v 4.51481 -2.44799 21.1766 
v 6.26823 -2.44799 21.1766 
v 4.51481 -1.296 -21.1766 
v 4.51481 -1.296 -21.1766 
v 0.914815 1.296 -21.1766 
v 0.914816 1.296 21.1766 
v 4.51481 -1.29599 21.1766 
v 0.914815 1.296 21.1766 
v 0.914815 -1.296 21.1766 
v 4.51481 -1.296 21.1766 
v -6.71718 3.6 -21.1766 
v -6.70023 2.592 -21.1766 
v -6.71718 2.54119 -21.1766 
v -6.67305 2.54119 -21.1766 
v -2.19324 2.592 -19.144 
v -2.19324 2.592 -21.1766 
v -6.71718 3.6 -21.1766 
v -6.71718 3.6 21.1766 
v -6.67305 2.54119 -21.1766 
v -6.67305 2.54119 -20.7833 
v -6.71718 2.54119 -21.1766 
v -2.19324 2.592 -19.144 
v -2.19324 2.592 21.1766 
v -6.71718 2.54118 21.1766 
v -6.67305 2.54119 -19.8178 
v -6.67305 2.54118 21.1766 
v -2.19324 2.592 21.1766 
v -6.71718 3.6 21.1766 
v -6.71718 2.54119 21.1766 
v -10.0292 -3.6 -21.1766 
v -7.14917 -2.448 -21.1766 
v -7.14917 -3.6 -21.1766 
v -7.14917 -2.448 -21.1766 
v -10.0292 -3.6 -21.1766 
v -10.0292 -3.59999 21.1766 
v -10.0292 -3.6 -21.1766 
v -7.14917 -3.6 -21.1766 
v -7.14917 -3.6 21.1766 
v -10.0292 -3.6 21.1766 
v -10.0292 -3.59999 -21.1766 
v -7.14917 -2.448 21.1766 
v -10.0292 -3.6 21.1766 
v -7.14917 -3.6 21.1766 
v -7.14917 -2.448 21.1766 
v -6.71718 2.54119 -21.1766 
v -8.01317 3.6 -21.1766 
v -6.71718 3.6 -21.1766 
v -8.01318 3.6 -21.1766 
v -6.71718 2.54119 -21.1766 
v -6.71718 2.54118 21.1766 
v -6.71718 3.6 -21.1766 
v -8.01317 3.6 -21.1766 
v -8.01317 3.6 21.1766 
v -8.01318 3.6 21.1766 
v -6.71718 3.6 21.1766 
v -6.71718 2.54119 21.1766 
v -8.01317 3.6 21.1766 
v 4.51481 -2.44799 21.1766 
v 4.51481 -1.296 21.1766 
v 0.914814 -1.296 21.1766 
v -5.85318 -1.296 21.1766 
v -5.85318 -2.44799 21.1766 
v -7.14918 -2.44799 21.1766 
v -5.85318 -2.44799 21.1766 
v -7.14918 -2.44799 21.1766 
v -5.85318 -0.863997 21.1766 
v -5.85318 -0.864002 14.1178 
v -5.85317 -0.863998 -21.1766 
v -5.85317 -0.863998 -21.1766 
v -7.14917 -2.448 -21.1766 
v -5.85318 -1.296 -21.1766 
v -5.85318 -2.44799 -21.1766 
v -7.14918 -2.44799 -21.1766 
v -5.85318 -0.863996 -21.1766 
v 6.26823 -2.448 -21.1766 
v 10.0292 -3.6 -21.1766 
v 6.26823 -3.6 -21.1766 
v 10.0292 -3.6 -21.1766 
v 6.26823 -2.448 -21.1766 
v 6.26823 -2.448 21.1766 
v 6.26823 -3.6 -21.1766 
v 10.0292 -3.6 -21.1766 
v 10.0292 -3.6 21.1766 
v 10.0292 -3.59999 21.1766 
v 6.26823 -3.6 21.1766 
v 6.26823 -2.448 21.1766 
v 6.26823 -3.6 21.1766 
v 10.0292 -3.6 21.1766 

vn 0 0 -1 
vn 0 0 -1 
vn 0 0 -1 
vn 0 0 -1 
vn 0 0 -1 
vn 0 0 -1 
vn 0 0 -1 
vn 0 0 -1 
vn 0 0 -1 
vn 0 0 1 
vn 0 0 1 
vn 0 0 1 
vn 0 0 1 
vn -0.889764 0.456693 0 
vn -0.968504 0.244094 0 
vn -0.984252 -0.165354 0 
vn -0.96063 -0.267717 0 
vn -0.968504 0.244094 0 
vn -0.937008 0.354331 0 
vn -0.952756 -0.299213 0 
vn -0.984252 -0.165354 0 
vn 0 0 1 
vn 0 0 1 
vn 0 0 1 
vn 0 0 -1 
vn 0 0 -1 
vn 0 0 -1 
vn 0 0 -1 
vn 0 0 -1 
vn 0 0 -1 
vn 0 0 -1 
vn 0 0 -1 
vn 0 0 -1 
vn 0 0 -1 
vn 0 0 -1 
vn 0 0 -1 
vn 0 0 -1 
vn 0 0 1 
vn 0 0 1 
vn 0 0 1 
vn 0 0 1 
vn 0 0 1 
vn 0 -1 0 
vn 0 -1 0 
vn 0 -1 0 
vn 0 -1 0 
vn 0 -1 0 
vn 0 -1 0 
vn 0 0 1 
vn 0.393701 0.92126 0 
vn 0.362205 0.929134 0 
vn 0.19685 0.976378 0 
vn 0.212598 0.976378 0 
vn 0.204724 0.976378 0 
vn 0 0 -1 
vn 0 0 -1 
vn 0 0 -1 
vn 0 0 -1 
vn 0.204724 0.976378 0 
vn 0.393701 0.92126 0 
vn 0 0 1 
vn 0 0 1 
vn 0 0 1 
vn 0 0 1 
vn 0 0 1 
vn 0 0 1 
vn 0 0 1 
vn 0 0 -1 
vn 0 0 -1 
vn 0 0 -1 
vn 0 0 -1 
vn 0 0 -1 
vn 0 0 -1 
vn 0 0 -1 
vn 0 0 -1 
vn 0 0 -1 
vn 0 0 -1 
vn 0 0 1 
vn 0 0 1 
vn 0 0 1 
vn 0 0 1 
vn 0 0 1 
vn 0 0 1 
vn 0 0 1 
vn -0.732283 -0.685039 0 
vn -0.88189 -0.472441 0 
vn -0.952756 -0.299213 0 
vn -0.88189 -0.472441 0 
vn -0.96063 -0.267717 0 
vn -0.88189 -0.472441 0 
vn -0.637795 -0.771654 0 
vn -0.984252 -0.165354 0 
vn -0.952756 -0.299213 0 
vn 0 0 -1 
vn 0 0 -1 
vn 0 0 -1 
vn 0 0 1 
vn 0 0 1 
vn 0 0 1 
vn 0 0 -1 
vn 0 0 -1 
vn 0 0 -1 
vn 0 0 -1 
vn 0 0 -1 
vn 0 0 0 
vn 0 0 0 
vn 0 0 0 
vn 0.488189 0.874016 0 
vn 0.362205 0.929134 0 
vn 0.393701 0.92126 0 
vn 0.543307 0.84252 0 
vn 0 0 1 
vn 0 0 1 
vn 0 0 -1 
vn 0 0 -1 
vn 0 0 -1 
vn 0.433071 0.905512 0 
vn 0.574803 0.818898 0 
vn 0.566929 0.826772 0 
vn 0.346457 0.937008 0 
vn 0 0 1 
vn 0 0 1 
vn 0 0 1 
vn 0 0 -1 
vn 0.574803 0.818898 0 
vn 0.488189 0.874016 0 
vn 0.543307 0.84252 0 
vn 0.566929 0.826772 0 
vn 0 0 1 
vn 0 0 1 
vn 0 0 1 
vn 0 0 -1 
vn 0 0 -1 
vn 0 0 -1 
vn 0 0 -1 
vn 0.212598 0.976378 0 
vn 0.204724 0.976378 0 
vn 0.141732 0.992126 0 
vn 0.188976 0.984252 0 
vn -0.622047 -0.787402 0 
vn 0 -1 0 
vn -0.622047 -0.787402 0 
vn 0.212598 0.976378 0 
vn 0.204724 0.976378 0 
vn -0.614173 -0.787402 0 
vn 0 -1 0 
vn -0.614173 -0.787402 0 
vn 0 0 1 
vn 0 0 1 
vn 0 0 1 
vn 0 0 -1 
vn 0 0 -1 
vn 0 0 -1 
vn -0.480315 0.874016 0 
vn -0.370079 0.929134 0 
vn -0.370079 0.929134 0 
vn 0 -1 0 
vn 0 -1 0 
vn 0 -1 0 
vn 0 -1 0 
vn 0 -1 0 
vn -0.622047 0.787402 0 
vn 0 0 1 
vn 0 0 1 
vn 0 0 1 
vn 0 0 -1 
vn 0 0 -1 
vn 0 0 -1 
vn -0.629921 -0.771654 0 
vn -0.622047 -0.779528 0 
vn -0.716535 -0.700787 0 
vn 0.141732 0.992126 0 
vn 0 1 0 
vn 0 1 0 
vn -0.629921 -0.771654 0 
vn 0.188976 0.984252 0 
vn 0 0 1 
vn 0 0 1 
vn 0 0 1 
vn 0 0 1 
vn 0 0 1 
vn 0 0 1 
vn 0 0 1 
vn 0 0 1 
vn 0 0 1 
vn -0.622047 0.787402 0 
vn -0.937008 0.354331 0 
vn -0.968504 0.244094 0 
vn -0.889764 0.456693 0 
vn -0.889764 0.456693 0 
vn -0.480315 0.874016 0 
vn 0 0 -1 
vn 0 0 -1 
vn 0 0 -1 
vn 0 0 -1 
vn 0 0 -1 
vn 0 0 -1 
vn 0 0 -1 
vn 0.291339 0.952756 0 
vn 0.433071 0.905512 0 
vn 0.346457 0.937008 0 
vn 0 -1 0 
vn 0 -1 0 
vn 0 -1 0 
vn 0.291339 0.952756 0 
vn 0 -1 0 
vn 0 0 1 
vn 0 0 1 
vn 0 0 1 

vt 16.639 -12.7478 
vt 16.639 -13.0718 
vt 17.485 -13.0718 
vt 16.999 -12.7478 
vt 17.485 -13.0178 
vt 17.485 -12.7838 
vt 17.485 -13.0718 
vt 16.639 -12.7478 
vt 17.485 -12.7478 
vt 16.8677 -13.0718 
vt 16.8677 -12.7478 
vt 16.5077 -12.7478 
vt 16.0217 -12.7478 
vt 14.1063 -13.0178 
vt 18.5181 -13.0178 
vt 14.6945 -12.7838 
vt 14.1063 -12.7838 
vt 18.5181 -13.0178 
vt 19.4004 -13.0178 
vt 19.4004 -12.7838 
vt 14.6945 -12.7838 
vt 16.0217 -12.7838 
vt 16.0217 -13.0178 
vt 16.0217 -13.0718 
vt 16.189 -13.0718 
vt 16.189 -13.2158 
vt 17.485 -13.2158 
vt 16.639 -13.0718 
vt 17.485 -13.0718 
vt 15.9698 -13.2158 
vt 15.9698 -13.3598 
vt 17.647 -13.3598 
vt 16.189 -13.2158 
vt 15.9698 -13.2158 
vt 17.647 -13.3598 
vt 17.485 -13.2158 
vt 17.647 -13.2158 
vt 17.5369 -13.3598 
vt 17.5369 -13.2158 
vt 17.3177 -13.2158 
vt 16.0217 -13.2158 
vt 15.8597 -13.2158 
vt 17.5369 -15.5569 
vt 17.5369 -10.2627 
vt 15.8597 -10.2627 
vt 15.8597 -15.5569 
vt 17.5369 -15.5569 
vt 15.8597 -10.2627 
vt 15.8597 -13.3598 
vt 16.999 -10.2627 
vt 16.999 -15.5569 
vt 17.0275 -10.5732 
vt 17.0275 -15.3028 
vt 17.0275 -15.5569 
vt 16.999 -12.5921 
vt 17.0104 -12.5896 
vt 16.999 -12.5858 
vt 17.0275 -12.5858 
vt 17.0275 -10.2627 
vt 16.999 -10.2627 
vt 16.4792 -12.5858 
vt 16.5077 -12.5921 
vt 16.5077 -12.5858 
vt 16.0408 -12.5921 
vt 16.0217 -12.5921 
vt 16.0217 -12.7478 
vt 16.5077 -12.7478 
vt 17.018 -12.5921 
vt 17.485 -12.7478 
vt 17.485 -12.5921 
vt 17.018 -12.5921 
vt 17.485 -12.7478 
vt 17.0104 -12.5896 
vt 17.018 -12.5921 
vt 17.0275 -12.5858 
vt 17.485 -12.5921 
vt 17.485 -12.5858 
vt 16.5077 -12.5921 
vt 16.5077 -12.7478 
vt 16.4792 -12.5858 
vt 16.0217 -12.5858 
vt 15.9192 -12.5921 
vt 16.0217 -12.7478 
vt 16.0217 -12.7838 
vt 19.4004 -12.5921 
vt 14.2761 -12.5921 
vt 19.4004 -12.7838 
vt 14.1554 -12.5921 
vt 14.1063 -12.7838 
vt 14.2761 -12.5921 
vt 14.1063 -12.5921 
vt 14.6945 -12.7838 
vt 19.4004 -12.7838 
vt 17.5875 -12.5921 
vt 17.485 -12.7478 
vt 17.485 -12.7838 
vt 15.9192 -12.5921 
vt 16.0217 -12.5858 
vt 15.9158 -12.5858 
vt 17.5909 -12.5858 
vt 17.485 -12.5858 
vt 16.999 -12.5858 
vt 16.639 -12.7478 
vt 16.999 -12.7478 
vt 16.999 -12.5858 
vt 16.999 -12.7478 
vt 16.999 -12.5921 
vt 16.639 -15.5569 
vt 16.999 -15.5569 
vt 16.999 -10.2627 
vt 16.639 -10.2627 
vt 16.8677 -12.7478 
vt 16.5077 -12.5858 
vt 16.189 -13.0718 
vt 15.9698 -13.2158 
vt 16.189 -13.2158 
vt 15.9698 -15.5569 
vt 16.189 -15.5569 
vt 16.189 -10.2627 
vt 15.9698 -10.2627 
vt 17.3177 -13.0718 
vt 17.3177 -13.2158 
vt 17.5369 -13.2158 
vt 16.189 -13.0718 
vt 16.189 -15.5569 
vt 16.639 -15.5569 
vt 16.639 -10.2627 
vt 16.189 -10.2627 
vt 16.8677 -12.7478 
vt 16.8677 -13.0718 
vt 17.3177 -13.0718 
vt 17.593 -12.4598 
vt 17.5909 -12.5858 
vt 17.593 -12.5921 
vt 17.5875 -12.5921 
vt 17.0275 -15.3028 
vt 17.0275 -15.5569 
vt 17.593 -15.5569 
vt 17.593 -10.2627 
vt 15.9192 -15.5569 
vt 15.9192 -15.5077 
vt 15.9137 -15.5569 
vt 17.0275 -15.3028 
vt 17.0275 -10.2627 
vt 15.9137 -10.2627 
vt 15.9192 -15.387 
vt 15.9192 -10.2627 
vt 16.4792 -12.5858 
vt 15.9137 -12.4598 
vt 15.9137 -12.5921 
vt 18.007 -13.3598 
vt 17.647 -13.2158 
vt 17.647 -13.3598 
vt 17.647 -15.5569 
vt 18.007 -15.5569 
vt 18.007 -10.2627 
vt 15.4997 -15.5569 
vt 15.8597 -15.5569 
vt 15.8597 -10.2627 
vt 15.4997 -10.2627 
vt 15.4997 -15.5569 
vt 17.647 -10.2627 
vt 15.4997 -13.3598 
vt 15.8597 -13.3598 
vt 15.8597 -13.2158 
vt 17.593 -12.5921 
vt 17.755 -12.4598 
vt 17.593 -12.4598 
vt 15.7517 -15.5569 
vt 15.9137 -15.5569 
vt 15.9137 -10.2627 
vt 17.593 -15.5569 
vt 17.755 -15.5569 
vt 17.755 -10.2627 
vt 15.7517 -10.2627 
vt 17.593 -10.2627 
vt 15.9137 -12.5921 
vt 15.7517 -12.4598 
vt 17.3177 -13.2158 
vt 17.3177 -13.0718 
vt 16.8677 -13.0718 
vt 16.0217 -13.0718 
vt 16.0217 -13.2158 
vt 15.8597 -13.2158 
vt 16.0217 -13.2158 
vt 19.4004 -13.2158 
vt 19.4004 -13.0178 
vt 18.5181 -13.0178 
vt 14.1063 -13.0178 
vt 14.1063 -13.0178 
vt 14.1063 -13.2158 
vt 17.485 -13.0718 
vt 17.485 -13.2158 
vt 17.647 -13.2158 
vt 17.485 -13.0178 
vt 15.9698 -13.2158 
vt 15.4997 -13.3598 
vt 15.9698 -13.3598 
vt 15.4997 -15.5569 
vt 15.9698 -15.5569 
vt 15.9698 -10.2627 
vt 17.5369 -15.5569 
vt 18.007 -15.5569 
vt 18.007 -10.2627 
vt 15.4997 -10.2627 
vt 17.5369 -10.2627 
vt 17.5369 -13.2158 
vt 17.5369 -13.3598 
vt 18.007 -13.3598 

usemtl Tsunamiwave1Mtl

f 1/1/1 2/2/2 3/3/3 
f 4/4/4 5/5/5 6/6/6 
f 7/7/7 4/4/4 8/8/8 
f 4/4/4 6/6/6 9/9/9 
f 7/7/7 5/5/5 4/4/4 
f 10/10/10 11/11/11 12/12/12 
f 10/10/10 12/12/12 13/13/13 
f 14/14/14 15/15/15 16/16/16 
f 14/14/14 16/16/16 17/17/17 
f 18/18/18 19/19/19 20/20/20 
f 18/18/18 20/20/20 21/21/21 
f 10/10/10 22/22/22 23/23/23 
f 22/22/22 10/10/10 13/13/13 
f 23/23/23 24/24/24 10/10/10 
f 25/25/25 26/26/26 27/27/27 
f 28/28/28 25/25/25 27/27/27 
f 28/28/28 27/27/27 29/29/29 
f 30/30/30 31/31/31 32/32/32 
f 33/33/33 34/34/34 35/35/35 
f 36/36/36 35/35/35 37/37/37 
f 35/35/35 36/36/36 33/33/33 
f 38/38/38 39/39/39 40/40/40 
f 41/41/41 42/42/42 38/38/38 
f 41/41/41 38/38/38 40/40/40 
f 43/43/43 44/44/44 45/45/45 
f 46/46/46 47/47/47 48/48/48 
f 38/38/38 42/42/42 49/49/49 
f 50/50/50 51/51/51 52/52/52 
f 53/53/53 52/52/52 51/51/51 
f 54/54/54 53/53/53 51/51/51 
f 55/55/55 56/56/56 57/57/57 
f 56/56/56 58/58/58 57/57/57 
f 52/52/52 59/59/59 60/60/60 
f 61/61/61 62/62/62 63/63/63 
f 64/64/64 65/65/65 66/66/66 
f 64/64/64 66/66/66 67/67/67 
f 68/68/68 55/55/55 4/4/4 
f 68/68/68 4/4/4 69/69/69 
f 56/56/56 55/55/55 68/68/68 
f 70/70/70 71/71/71 72/72/72 
f 73/73/73 74/74/74 75/75/75 
f 75/75/75 76/76/76 77/77/77 
f 76/76/76 75/75/75 74/74/74 
f 78/78/78 64/64/64 79/79/79 
f 78/78/78 80/80/80 81/81/81 
f 78/78/78 81/81/81 64/64/64 
f 65/65/65 64/64/64 81/81/81 
f 65/65/65 82/82/82 83/83/83 
f 82/82/82 84/84/84 83/83/83 
f 85/85/85 86/86/86 87/87/87 
f 88/88/88 89/89/89 90/90/90 
f 89/89/89 88/88/88 91/91/91 
f 89/89/89 92/92/92 90/90/90 
f 92/92/92 93/93/93 90/90/90 
f 94/94/94 70/70/70 95/95/95 
f 94/94/94 95/95/95 96/96/96 
f 97/97/97 65/65/65 98/98/98 
f 97/97/97 98/98/98 99/99/99 
f 70/70/70 94/94/94 100/100/100 
f 70/70/70 100/100/100 101/101/101 
f 102/102/102 103/103/103 104/104/104 
f 105/105/105 106/106/106 107/107/107 
f 108/108/108 109/109/109 110/110/110 
f 108/108/108 110/110/110 111/111/111 
f 78/78/78 79/79/79 112/112/112 
f 78/78/78 112/112/112 113/113/113 
f 114/114/114 115/115/115 116/116/116 
f 117/117/117 118/118/118 119/119/119 
f 117/117/117 119/119/119 120/120/120 
f 121/121/121 122/122/122 123/123/123 
f 1/1/1 124/124/124 2/2/2 
f 125/125/125 126/126/126 127/127/127 
f 125/125/125 127/127/127 128/128/128 
f 129/129/129 130/130/130 131/131/131 
f 75/75/75 77/77/77 132/132/132 
f 133/133/133 134/134/134 132/132/132 
f 134/134/134 133/133/133 135/135/135 
f 133/133/133 132/132/132 77/77/77 
f 136/136/136 137/137/137 138/138/138 
f 136/136/136 138/138/138 139/139/139 
f 140/140/140 141/141/141 142/142/142 
f 52/52/52 143/143/143 139/139/139 
f 52/52/52 139/139/139 144/144/144 
f 145/145/145 142/142/142 146/146/146 
f 146/146/146 147/147/147 145/145/145 
f 146/146/146 142/142/142 141/141/141 
f 81/81/81 148/148/148 149/149/149 
f 99/99/99 149/149/149 150/150/150 
f 149/149/149 99/99/99 81/81/81 
f 99/99/99 150/150/150 82/82/82 
f 151/151/151 152/152/152 153/153/153 
f 154/154/154 155/155/155 156/156/156 
f 157/157/157 158/158/158 159/159/159 
f 160/160/160 161/161/161 159/159/159 
f 154/154/154 156/156/156 162/162/162 
f 163/163/163 164/164/164 165/165/165 
f 166/166/166 167/167/167 168/168/168 
f 169/169/169 170/170/170 171/171/171 
f 172/172/172 173/173/173 174/174/174 
f 169/169/169 171/171/171 175/175/175 
f 172/172/172 174/174/174 176/176/176 
f 177/177/177 149/149/149 178/178/178 
f 179/179/179 180/180/180 181/181/181 
f 179/179/179 181/181/181 182/182/182 
f 179/179/179 182/182/182 183/183/183 
f 23/23/23 184/184/184 24/24/24 
f 184/184/184 185/185/185 24/24/24 
f 186/186/186 187/187/187 188/188/188 
f 186/186/186 188/188/188 189/189/189 
f 186/186/186 190/190/190 191/191/191 
f 192/192/192 193/193/193 194/194/194 
f 192/192/192 194/194/194 195/195/195 
f 196/196/196 197/197/197 198/198/198 
f 199/199/199 200/200/200 201/201/201 
f 202/202/202 203/203/203 204/204/204 
f 199/199/199 201/201/201 205/205/205 
f 202/202/202 204/204/204 206/206/206 
f 207/207/207 208/208/208 209/209/209 

